<?xml version="1.0" encoding="utf-8"?>
<!-- Generator: Adobe Illustrator 22.0.0, SVG Export Plug-In . SVG Version: 6.00 Build 0)  -->
<svg version="1.1" id="Camada_1" xmlns="http://www.w3.org/2000/svg" xmlns:xlink="http://www.w3.org/1999/xlink" x="0px" y="0px"
	 viewBox="0 0 1710.3 653.9" style="enable-background:new 0 0 1710.3 653.9;" xml:space="preserve">
<style type="text/css">
	.st0{fill:#FFFFFF;stroke:#F4E71F;stroke-width:13;stroke-miterlimit:10;}
	.st1{fill:#F4E71F;stroke:#F4E71F;stroke-width:13;stroke-miterlimit:10;}
	.st2{fill:#FFFFFF;stroke:#004586;stroke-width:10;stroke-miterlimit:10;}
	.st3{fill:#004586;}
	.st4{fill:#F9C68D;}
	.st5{fill:#EFA962;}
	.st6{fill:#965C23;}
	.st7{fill:#AD5C14;}
	.st8{fill:#DD9B5F;}
	.st9{fill:#D19861;}
	.st10{fill:#CE7D34;}
	.st11{fill:#F2CFAD;}
	.st12{fill:#E0B794;}
	.st13{fill:#DDA46B;}
	.st14{fill:#BF7C40;}
	.st15{fill:#AF672C;}
	.st16{fill:#311A0F;}
	.st17{fill:#3A251D;}
	.st18{fill:#EC6411;}
	.st19{fill:#C95311;}
	.st20{fill:#2A100B;}
	.st21{fill:#3A1E1B;}
	.st22{fill:#1C1305;}
	.st23{fill:#EFB001;}
	.st24{fill:#E7B05C;}
	.st25{fill:#EAAF75;}
	.st26{fill:#CE915B;}
	.st27{fill:#19110A;}
	.st28{fill:#FAB72F;}
	.st29{fill:#E8B05D;}
	.st30{fill:#A25B16;}
	.st31{fill:#1E1A18;}
	.st32{fill:#FFFFFF;}
	.st33{fill:none;}
</style>
<ellipse class="st0" cx="260.5" cy="224.8" rx="218.5" ry="203"/>
<path class="st1" d="M455.9,224.8c0,100.2-87.5,181.5-195.4,181.5S65.2,325,65.2,224.8S152.6,46.3,260.5,46.3
	S455.9,124.5,455.9,224.8z"/>
<g>
	<path class="st2" d="M306.2,568.7L493,535.1c0,0-69.6-111.2-88-150.3c-13.7-29.1-24.4-88.4-24.4-88.4l-1.1-10.8
		c-4.1-54.4-16.2-91.5-40.1-121.5c-19.4-24.3-46.4-33.3-71.6-33.3c-29,0-60.5,10.2-81.4,41.7c-19.5,29.3-30.9,71.6-35,120.1
		c-0.1,1.2,0.5,3.9-0.7,3.9h-0.1c0,0-4.3,31.8-11.7,59.4C128.8,393.7,32,537.6,32,537.6l199.5,32.7c11.3,6.8,23.5,10.5,36.3,10.5
		C281.5,580.8,294.4,576.5,306.2,568.7z"/>
	<path class="st3" d="M302.4,561.1L473,527.8c0,0-62.5-105.5-79.5-143.1c-12.7-28-22.5-84.9-22.5-84.9l-1-10.3
		c-3.8-52.3-14.9-87.8-37-116.7c-17.9-23.3-42.8-32-66-32c-26.7,0-55.7,9.8-75,40c-18,28.2-28.5,68.8-32.3,115.3
		c-0.1,1.1,0.4,3.8-0.7,3.8H159c0,0-4,30.5-10.8,57c-9.3,36.4-95.2,173-95.2,173l180.5,32.9c10.4,6.5,21.7,10.1,33.5,10.1
		C279.7,572.8,291.5,568.7,302.4,561.1z"/>
</g>
<g>
	<g>
		<path class="st4" d="M206.1,490c0,23.5-39.5,42.5-39.5,42.5s-39.5-19-39.5-42.5c0-23.5,17.7-42.5,39.5-42.5S206.1,466.5,206.1,490
			z"/>
		<path class="st5" d="M206.3,490c-0.1,5.1-1.8,10.1-4.4,14.5c-1.3,2.2-2.7,4.3-4.3,6.4c-1.6,2-3.3,3.9-5.1,5.8
			c-3.6,3.6-7.6,6.9-11.8,9.9c-2.1,1.5-4.3,2.8-6.5,4.1c-2.2,1.3-4.4,2.5-6.8,3.6l-0.9,0.4l-0.8-0.4c-7.1-3.8-13.6-8.4-19.7-13.6
			c-6-5.2-11.8-10.8-15.9-17.7c-0.5-0.9-1-1.7-1.4-2.7l-0.6-1.4l-0.5-1.4l-0.3-0.7l-0.2-0.7l-0.4-1.5c-0.2-1-0.4-2-0.5-3
			c0-0.5-0.1-1-0.1-1.5l0-1.5c0-1,0-2,0.1-3c0.2-2,0.3-4.1,0.8-6l0.3-1.5c0.1-0.5,0.2-1,0.4-1.5l0.9-2.9c0.3-1,0.8-1.9,1.1-2.9
			l0.6-1.4c0.2-0.5,0.5-0.9,0.7-1.4c1.8-3.7,4.3-7,7.1-10.1c2.8-3.1,6.2-5.6,9.8-7.6c3.6-2.1,7.6-3.5,11.8-4.2
			c4.1-0.8,8.4-0.8,12.5-0.2c1,0.2,2.1,0.3,3.1,0.6l3,0.9l0.8,0.2c0.2,0.1,0.5,0.2,0.7,0.3l1.5,0.6l1.4,0.6c0.5,0.2,0.9,0.5,1.4,0.7
			c3.7,1.9,7,4.5,9.9,7.5c2.9,2.9,5.2,6.4,7,10C204.6,474.1,206.2,482,206.3,490z M205.9,490c-0.2-3.9-0.5-7.9-1.8-11.6
			c-1.2-3.7-2.8-7.3-5-10.5c-2.1-3.2-4.6-6.2-7.6-8.5c-2.9-2.4-6-4.6-9.4-6.1c-6.7-3.2-14.4-4.2-21.7-2.9c-3.6,0.7-7.2,1.8-10.5,3.6
			c-3.3,1.8-6.4,3.9-9,6.6c-0.7,0.6-1.3,1.3-1.9,2c-0.6,0.7-1.3,1.4-1.8,2.2l-1.7,2.3c-0.5,0.8-1,1.6-1.5,2.4
			c-1.9,3.3-3.4,6.8-4.4,10.5c-0.6,1.8-0.8,3.7-1.2,5.6c-0.1,1-0.2,1.9-0.3,2.9l-0.1,1.4c0,0.5,0,0.9,0,1.4c0,3.8,1.3,7.5,3.1,10.9
			c1.9,3.4,4.3,6.5,7,9.3c0.7,0.7,1.4,1.4,2.1,2.1c0.7,0.7,1.4,1.3,2.2,1.9c1.5,1.3,3,2.5,4.6,3.6c3.2,2.3,6.5,4.4,9.9,6.3
			c3.4,1.9,6.9,3.8,10.3,5.4h-1.6c1.1-0.5,2.2-1.2,3.2-1.8c1.1-0.6,2.2-1.2,3.2-1.9c2.1-1.3,4.2-2.6,6.3-3.9
			c4.2-2.7,8.3-5.5,12.1-8.7c3.8-3.1,7.5-6.6,10.3-10.7C203.9,499.8,205.8,495,205.9,490z"/>
	</g>
	<g>
		<path class="st6" d="M309.5,489.5c0,23.2-39.9,42.1-39.9,42.1s-39.9-18.8-39.9-42.1s17.9-42.1,39.9-42.1
			C291.7,447.4,309.5,466.3,309.5,489.5z"/>
		<path class="st7" d="M309.8,489.5c-0.1,5.1-1.9,10.1-4.4,14.5c-1.3,2.2-2.8,4.3-4.4,6.4c-1.6,2-3.3,3.9-5.1,5.8
			c-3.6,3.6-7.6,7-11.9,9.8c-2.1,1.4-4.3,2.8-6.5,4.1c-2.2,1.3-4.5,2.4-6.9,3.5l-1,0.5l-0.9-0.5c-1.9-0.9-3.6-1.9-5.3-3
			c-1.7-1-3.4-2.1-5-3.3c-3.3-2.3-6.5-4.7-9.5-7.3c-1.5-1.3-3-2.6-4.5-4c-1.5-1.4-2.9-2.8-4.3-4.2c-2.7-2.9-5.3-6-7.4-9.5
			c-1-1.8-2-3.5-2.6-5.5c-0.4-0.9-0.6-2-0.9-2.9l-0.3-1.5c0-0.3-0.1-0.5-0.1-0.8l-0.1-0.8c0-0.5-0.1-1-0.1-1.6l0-1.5c0-1,0-2,0-3.1
			c0.2-2,0.3-4.1,0.8-6.1l0.3-1.5l0.2-0.8l0.2-0.7l0.9-3c0.3-1,0.8-1.9,1.2-2.9l0.6-1.4l0.7-1.4c1.9-3.7,4.4-7.1,7.3-10.1
			c2.9-3,6.3-5.6,10-7.6c0.9-0.5,1.8-1,2.8-1.4l2.9-1.2c1-0.4,2-0.6,3-0.9l1.5-0.4l1.6-0.3c8.3-1.5,17.2-0.2,24.6,3.6
			c7.5,3.8,13.5,10.2,17.1,17.4c0.4,0.9,0.9,1.8,1.3,2.7l1.1,2.8c0.4,0.9,0.6,1.9,0.9,2.9l0.4,1.4c0.2,0.5,0.3,1,0.4,1.5l0.6,2.9
			c0.2,1,0.2,2,0.4,3l0.2,1.5c0,0.5,0,1,0.1,1.5L309.8,489.5z M309.3,489.5l-0.2-2.9c0-0.5,0-1-0.1-1.5l-0.2-1.4
			c-0.2-1-0.3-1.9-0.5-2.9l-0.8-2.8c-0.2-0.9-0.7-1.8-1-2.7c-0.4-0.9-0.7-1.8-1.2-2.7c-0.4-0.9-0.9-1.7-1.4-2.6
			c-0.5-0.8-1.1-1.6-1.6-2.4c-0.5-0.8-1.1-1.5-1.7-2.3l-0.9-1.1l-0.5-0.5l-0.5-0.5l-2-2c-0.7-0.6-1.4-1.2-2.2-1.8
			c-0.7-0.6-1.5-1.2-2.2-1.7c-0.8-0.5-1.5-1.1-2.3-1.5c-0.8-0.5-1.6-0.9-2.4-1.4l-2.5-1.2c-3.4-1.4-6.9-2.6-10.5-3
			c-3.6-0.4-7.3-0.4-10.9,0.2l-1.4,0.2l-1.3,0.4c-0.9,0.3-1.8,0.4-2.6,0.7l-2.6,0.9c-0.9,0.3-1.7,0.8-2.5,1.2
			c-3.3,1.7-6.4,3.7-9,6.3c-2.7,2.6-5.1,5.4-6.9,8.7l-0.7,1.2l-0.6,1.3c-0.4,0.8-0.9,1.7-1.2,2.5l-1,2.6l-0.3,0.7l-0.2,0.7l-0.4,1.4
			c-0.6,1.8-0.9,3.7-1.3,5.6c-0.1,0.9-0.2,1.9-0.3,2.9l-0.1,1.4c0,0.5,0,0.9,0,1.4c0,3.7,1.4,7.4,3.2,10.8c1.9,3.3,4.3,6.4,7.1,9.2
			c1.4,1.4,2.8,2.7,4.3,3.9c1.5,1.3,3.1,2.4,4.7,3.5c3.2,2.2,6.6,4.2,10,6.1c1.7,0.9,3.4,1.8,5.2,2.7c1.7,0.9,3.5,1.7,5.2,2.5h-1.9
			c4.3-2.3,8.6-4.8,12.8-7.4c2.1-1.3,4.2-2.7,6.2-4c2-1.4,4.1-2.8,6-4.3c3.9-3,7.6-6.4,10.5-10.4
			C307.2,499.3,309.2,494.5,309.3,489.5z"/>
	</g>
	<g>
		<path class="st4" d="M413,507c0,20.8-41.6,37.7-41.6,37.7s-41.6-16.9-41.6-37.7s18.6-37.7,41.6-37.7S413,486.2,413,507z"/>
		<path class="st8" d="M413.2,507c0,2.5-0.6,4.9-1.5,7.2c-0.9,2.3-2.2,4.4-3.7,6.5c-2.9,4-6.5,7.6-10.3,10.8
			c-3.8,3.2-7.9,6-12.2,8.5c-2.1,1.2-4.3,2.4-6.6,3.5c-2.2,1.1-4.5,2.1-6.8,3l-0.7,0.3l-0.7-0.3c-1.8-0.8-3.5-1.6-5.3-2.5
			c-1.7-0.9-3.4-1.8-5.1-2.8c-3.3-1.9-6.6-4-9.7-6.2c-1.6-1.1-3.1-2.2-4.7-3.4c-0.8-0.6-1.5-1.2-2.3-1.8c-0.8-0.6-1.5-1.2-2.2-1.9
			c-1.5-1.3-2.8-2.6-4.2-4c-1.3-1.4-2.6-2.9-3.8-4.5c-0.6-0.8-1.1-1.6-1.6-2.4c-0.2-0.4-0.5-0.9-0.7-1.3l-0.4-0.7l-0.3-0.7
			c-0.9-1.8-1.4-3.7-1.7-5.8l-0.1-1.5l0-1.5c0-1,0-2,0.1-3l0.4-2.9c0.1-1,0.4-1.9,0.7-2.9c1.9-7.8,6.7-14.7,13-19.7
			c3.1-2.5,6.5-4.7,10.3-6.2c0.5-0.2,0.9-0.4,1.4-0.6l1.4-0.5c1-0.3,1.9-0.7,2.9-0.9c1.9-0.5,3.9-1,5.9-1.2
			c7.9-1.2,16.2-0.1,23.6,2.8c3.7,1.6,7.2,3.6,10.3,6.1c3,2.6,5.8,5.5,8,8.7c2.1,3.3,3.8,6.8,5,10.5
			C412.6,499.4,413.2,503.2,413.2,507z M412.8,507c-0.1-3.8-0.8-7.6-2.1-11.1c-1.4-3.5-3.4-6.7-5.8-9.6c-2.4-2.8-5.3-5.2-8.3-7.2
			c-3.1-2-6.4-3.5-9.8-4.8c-3.5-1.1-7-2-10.6-2.3c-3.6-0.3-7.3-0.3-10.9,0.2c-1.8,0.2-3.6,0.7-5.3,1c-0.9,0.2-1.7,0.5-2.6,0.8
			l-1.3,0.4c-0.4,0.2-0.8,0.3-1.3,0.5c-3.4,1.3-6.5,3.2-9.4,5.3l-2.1,1.7l-2,1.9c-0.7,0.6-1.2,1.3-1.8,2c-0.6,0.7-1.2,1.4-1.7,2.1
			c-2.2,2.9-3.9,6.2-5.1,9.6c-0.3,0.9-0.6,1.7-0.8,2.6l-0.6,2.7c-0.1,0.4-0.1,0.9-0.2,1.4l-0.1,1.4l-0.1,1.4l0,1.3
			c0.2,3.6,1.7,7.1,3.8,10.2c2.1,3.1,4.8,5.8,7.7,8.2c1.4,1.2,3,2.4,4.5,3.4c1.6,1.1,3.1,2.1,4.8,3.1c3.3,1.9,6.6,3.7,10.1,5.3
			c1.7,0.8,3.4,1.6,5.2,2.3c1.7,0.7,3.5,1.5,5.2,2.1h-1.4c1.1-0.5,2.2-1,3.3-1.5c1.1-0.5,2.2-1,3.3-1.6c2.2-1.1,4.3-2.2,6.4-3.3
			c4.3-2.3,8.5-4.6,12.5-7.3c2-1.3,4-2.7,5.8-4.3c1.9-1.5,3.7-3.2,5.2-5c1.6-1.8,2.9-3.8,4-6C412.1,511.9,412.8,509.5,412.8,507z"/>
	</g>
	<g>
		<path class="st9" d="M113,549.7c4.5,21.1-35.9,47.7-35.9,47.7s-47.8-7.6-52.4-28.6s11.5-42.4,35.9-47.7
			C85,515.8,108.5,528.6,113,549.7z"/>
		<path class="st10" d="M113.2,549.7c0.6,2.6,0.4,5.3-0.1,7.8c-0.5,2.6-1.5,5.1-2.6,7.4c-1.1,2.4-2.5,4.7-3.9,6.9
			c-1.5,2.2-3.1,4.3-4.7,6.3c-3.4,4.1-7.1,7.8-11.1,11.3c-2,1.7-4,3.4-6.1,5c-2.1,1.6-4.2,3.1-6.5,4.5l-0.6,0.4l-0.7-0.1
			c-2.1-0.4-4-0.8-6-1.3c-2-0.5-4-1.1-5.9-1.7c-3.9-1.2-7.8-2.5-11.6-4c-1.9-0.8-3.8-1.5-5.7-2.4c-1.9-0.9-3.7-1.7-5.5-2.7
			c-3.6-1.9-7.2-4-10.4-6.7c-1.6-1.3-3.1-2.8-4.4-4.5c-1.4-1.6-2.4-3.5-3.1-5.5l-0.5-1.5l-0.3-1.5c-0.1-0.5-0.2-1-0.3-1.5
			c-0.1-0.5-0.2-1-0.2-1.6c-0.3-2.1-0.3-4.2-0.2-6.3c0.1-2.1,0.4-4.2,1-6.3c0.5-2.1,1.2-4.1,2-6c1.7-3.9,4-7.5,6.8-10.7
			c5.5-6.4,12.8-11.3,20.8-14.2c4-1.4,8.1-2.4,12.4-2.8c4.2-0.4,8.5-0.4,12.7,0.3c4.2,0.6,8.3,1.8,12.1,3.6c1.9,0.9,3.8,1.9,5.5,3.1
			c1.8,1.1,3.4,2.4,5,3.8C107.1,534.3,111.5,541.6,113.2,549.7z M112.8,549.7c-0.5-2-1.1-3.9-1.9-5.7c-0.8-1.9-1.8-3.6-2.9-5.3
			c-2.3-3.3-5.1-6.2-8.4-8.4c-1.6-1.2-3.3-2.2-5.1-3.1c-1.7-0.9-3.6-1.7-5.4-2.3c-3.7-1.3-7.5-2.1-11.4-2.5
			c-7.7-0.9-15.6,0.2-22.9,2.7c-7.3,2.6-14.1,6.8-19.3,12.5c-5.2,5.7-8.9,12.9-10,20.6c-0.3,1.9-0.4,3.9-0.3,5.8
			c0,0.5,0.1,1,0.1,1.5c0,0.5,0.1,1,0.2,1.5l0.2,1.5l0.3,1.4c1,3.7,3.5,6.9,6.5,9.5c3,2.6,6.4,4.8,10,6.5c3.6,1.8,7.4,3.2,11.2,4.4
			c3.8,1.2,7.8,2.2,11.7,3c2,0.4,3.9,0.8,5.9,1.2c2,0.3,4,0.7,5.9,1l-1.3,0.3c1-0.7,2.1-1.5,3.1-2.2c1-0.8,2.1-1.5,3.1-2.3
			c2-1.6,4-3.2,6-4.8c4-3.2,7.9-6.6,11.6-10.2c1.8-1.8,3.6-3.7,5.3-5.6c0.8-1,1.6-2,2.4-3c0.7-1.1,1.5-2.1,2.1-3.2
			c1.3-2.2,2.3-4.6,3-7.1C113.2,554.9,113.3,552.3,112.8,549.7z"/>
	</g>
	<g>
		<path class="st11" d="M211.1,581.8c2.5,23.3-37.7,46.8-37.7,46.8s-44.3-14.4-46.8-37.7s14.4-44.3,37.7-46.8
			S208.6,558.5,211.1,581.8z"/>
		<path class="st12" d="M211.3,581.8c0.5,5.3-1,10.6-3.3,15.3c-2.4,4.7-5.5,9.1-9,13.1c-3.5,4-7.4,7.7-11.5,11
			c-2.1,1.7-4.2,3.2-6.4,4.7c-2.2,1.5-4.4,2.9-6.8,4.3l-0.8,0.4l-0.7-0.3c-7.9-2.9-15.2-6.7-22.3-11c-7-4.4-13.8-9.2-19.1-15.7
			c-1.3-1.6-2.5-3.4-3.5-5.2c-0.5-0.9-0.9-1.9-1.3-2.9c-0.2-0.5-0.3-1-0.5-1.5l-0.2-0.8l-0.2-0.8c-0.1-0.5-0.2-1.1-0.3-1.6l-0.1-1.6
			c-0.1-1-0.2-2.1-0.2-3.1c0-2.1,0-4.2,0.3-6.3c0.1-2.1,0.7-4.2,1.1-6.3c0.7-2,1.2-4.1,2.2-6c0.8-2,1.9-3.8,3-5.7
			c1.2-1.7,2.4-3.6,3.9-5.1c1.3-1.7,3-3.1,4.5-4.6c1.7-1.3,3.3-2.7,5.2-3.8c1.8-1.2,3.7-2.1,5.7-3.1c1-0.4,2-0.8,3-1.2
			c0.5-0.2,1-0.4,1.5-0.5l1.6-0.4c8.3-2.4,17.3-2.1,25.5,0.7l3,1.2c1,0.4,1.9,0.9,2.9,1.4c0.5,0.3,1,0.5,1.4,0.7l1.3,0.9l1.3,0.9
			c0.5,0.3,0.9,0.6,1.3,0.9l2.5,2c0.8,0.7,1.5,1.5,2.3,2.2c0.4,0.4,0.8,0.7,1.1,1.1l1,1.2l1,1.2c0.3,0.4,0.7,0.8,1,1.2
			c2.5,3.4,4.4,7.1,5.9,10.9l1,2.9c0.2,0.5,0.3,1,0.4,1.5l0.4,1.5l0.4,1.5c0.1,0.5,0.2,1,0.3,1.5L211.3,581.8z M210.9,581.8
			c-0.6-4-1.5-8-3.3-11.7c-0.4-0.9-0.9-1.8-1.4-2.7l-0.7-1.3c-0.3-0.4-0.6-0.8-0.8-1.3c-0.6-0.8-1.1-1.7-1.7-2.5l-2-2.3
			c-0.3-0.4-0.7-0.7-1-1.1l-1.1-1l-1.1-1c-0.4-0.3-0.8-0.6-1.2-0.9c-0.8-0.6-1.5-1.3-2.3-1.8l-2.5-1.6c-0.4-0.3-0.8-0.5-1.3-0.7
			l-1.3-0.7l-1.3-0.7c-0.4-0.2-0.9-0.4-1.3-0.6l-1.4-0.6c-0.5-0.2-0.9-0.4-1.4-0.6l-2.8-0.9c-7.5-2.2-15.5-2.3-22.9-0.2l-1.4,0.4
			c-0.5,0.1-0.9,0.3-1.4,0.5c-0.9,0.4-1.8,0.7-2.7,1c-1.7,0.9-3.5,1.6-5.1,2.7c-1.7,0.9-3.2,2.2-4.8,3.3c-1.4,1.3-2.9,2.5-4.2,4
			c-1.4,1.4-2.5,3-3.7,4.6c-1,1.7-2.1,3.3-2.9,5.1c-1,1.7-1.6,3.6-2.3,5.4c-0.5,1.9-1.2,3.8-1.4,5.7c-0.4,1.9-0.5,3.9-0.7,5.9
			c0,1,0,2,0,3l0,1.5c0,0.5,0.1,1,0.2,1.4c0.5,3.9,2.4,7.5,4.8,10.7c2.5,3.2,5.4,6,8.6,8.4c1.6,1.2,3.3,2.4,5,3.4
			c1.7,1.1,3.5,2.1,5.3,3c3.6,1.9,7.3,3.5,11.1,5c3.8,1.5,7.6,2.9,11.4,4.1l-1.5,0.2c1.1-0.7,2.1-1.4,3.2-2.1
			c1.1-0.7,2.1-1.4,3.2-2.2c2.1-1.5,4.2-3,6.3-4.5c4.1-3.1,8.2-6.3,11.9-9.8c3.8-3.5,7.3-7.4,10-11.8c1.3-2.2,2.4-4.6,3.1-7.1
			C210.8,587,211.1,584.4,210.9,581.8z"/>
	</g>
	<g>
		<path class="st4" d="M304.3,587.3c0,24.2-43.8,43.8-43.8,43.8s-43.8-19.6-43.8-43.8s19.6-43.8,43.8-43.8S304.3,563.1,304.3,587.3z
			"/>
		<path class="st13" d="M304.5,587.3c0,5.5-2.2,10.7-5.1,15.3c-3,4.6-6.7,8.7-10.7,12.4c-4,3.7-8.4,7-13,10
			c-2.3,1.5-4.7,2.9-7.1,4.1c-2.4,1.3-4.8,2.5-7.4,3.6l-0.8,0.4l-0.7-0.4c-7.7-3.8-14.8-8.5-21.6-13.7c-6.7-5.2-13.1-10.9-17.9-18.2
			c-1.1-1.8-2.2-3.7-3-5.8c-0.4-1-0.7-2.1-1-3.1c-0.1-0.5-0.2-1.1-0.3-1.6l-0.2-0.8l-0.1-0.8c0-0.6-0.1-1.1-0.1-1.7l0-1.6
			c0-1.1,0-2.2,0.1-3.2c0.3-2.1,0.4-4.3,1-6.4c0.4-2.2,1.2-4.2,1.8-6.3c0.9-2,1.7-4,2.9-5.9c1-1.9,2.4-3.7,3.7-5.5
			c1.5-1.6,2.8-3.4,4.5-4.8c1.6-1.6,3.4-2.8,5.1-4.2c1.9-1.2,3.7-2.4,5.7-3.3c2-1.1,4.1-1.8,6.1-2.6c1.1-0.3,2.1-0.6,3.2-0.9
			c0.5-0.1,1.1-0.3,1.6-0.4l1.6-0.3c8.8-1.5,17.9-0.2,26,3.5l3,1.5c1,0.5,1.9,1.2,2.8,1.8c0.5,0.3,0.9,0.6,1.4,0.9l1.3,1l1.3,1
			c0.4,0.3,0.8,0.7,1.2,1.1l2.3,2.3c0.7,0.8,1.4,1.7,2.1,2.5c0.3,0.4,0.7,0.8,1,1.3l0.9,1.4l0.9,1.3c0.3,0.4,0.6,0.9,0.8,1.4
			l1.5,2.8c0.5,1,0.9,2,1.3,3c0.2,0.5,0.4,1,0.6,1.5l0.5,1.5l0.5,1.5c0.2,0.5,0.4,1,0.5,1.5l0.7,3.1c0.1,0.5,0.2,1,0.3,1.6l0.2,1.6
			l0.2,1.6c0.1,0.5,0.1,1.1,0.1,1.6L304.5,587.3z M304,587.3c-0.2-4.2-0.7-8.4-2-12.4c-0.3-1-0.7-2-1.1-2.9l-0.6-1.4
			c-0.2-0.5-0.5-0.9-0.7-1.4c-0.5-0.9-1-1.8-1.5-2.7l-1.8-2.6c-0.3-0.4-0.6-0.8-0.9-1.2l-1-1.2l-1-1.2c-0.3-0.4-0.7-0.7-1.1-1.1
			c-0.7-0.7-1.4-1.5-2.2-2.1l-2.4-1.9c-0.4-0.3-0.8-0.6-1.2-0.9l-1.3-0.9l-1.2-0.9c-0.4-0.3-0.9-0.5-1.3-0.7l-1.3-0.7
			c-0.4-0.2-0.9-0.5-1.3-0.7l-2.7-1.2c-7.4-3.1-15.6-4.1-23.5-2.8l-1.5,0.2c-0.5,0.1-1,0.2-1.5,0.4c-1,0.3-1.9,0.5-2.9,0.7
			c-1.9,0.7-3.8,1.3-5.6,2.2c-1.9,0.8-3.5,1.9-5.3,2.9c-1.6,1.2-3.3,2.3-4.8,3.7c-1.6,1.3-2.9,2.8-4.3,4.3c-1.2,1.6-2.5,3.1-3.6,4.9
			c-1.2,1.7-2,3.5-3,5.3c-0.7,1.9-1.6,3.7-2.1,5.7c-0.7,1.9-1,4-1.4,6c-0.2,1-0.2,2-0.3,3.1l-0.1,1.5c0,0.5,0,1,0,1.5
			c0.1,4,1.6,8,3.7,11.5c2.2,3.5,4.9,6.7,7.9,9.6c1.5,1.4,3.1,2.8,4.8,4.1c1.6,1.3,3.3,2.5,5.1,3.7c3.5,2.3,7.1,4.4,10.8,6.4
			c3.7,2,7.5,3.8,11.2,5.4l-1.5,0c1.2-0.6,2.4-1.2,3.5-1.8c1.2-0.6,2.4-1.2,3.5-1.9c2.3-1.3,4.6-2.6,6.9-4c4.6-2.7,9.1-5.6,13.3-8.8
			c4.2-3.2,8.3-6.8,11.5-11c1.6-2.1,2.9-4.5,4-6.9C303.5,592.6,304,589.9,304,587.3z"/>
	</g>
	<g>
		<path class="st14" d="M394.4,608.7c-4.8,20-47,27.1-47,27.1s-34.5-25.4-29.7-45.4c4.8-20,25.9-32.1,47-27.1
			C385.9,568.4,399.2,588.7,394.4,608.7z"/>
		<path class="st15" d="M394.5,608.8c-0.5,2.3-1.6,4.5-3,6.5c-1.3,2-3,3.7-4.8,5.3c-3.6,3.2-7.7,5.8-11.9,7.9
			c-4.3,2.2-8.7,4-13.3,5.4c-2.3,0.7-4.6,1.4-6.9,1.9c-2.3,0.6-4.6,1.1-7.1,1.4l-0.6,0.1l-0.5-0.4c-1.5-1.2-2.9-2.4-4.3-3.6
			c-1.4-1.2-2.8-2.5-4.1-3.8c-2.7-2.6-5.2-5.3-7.6-8.1c-2.4-2.8-4.7-5.8-6.8-8.8c-2.1-3.1-4-6.3-5.3-9.8c-0.4-0.9-0.6-1.8-0.9-2.7
			c-0.2-0.9-0.5-1.8-0.6-2.8c-0.4-1.9-0.4-3.8-0.2-5.7l0.2-1.4l0.4-1.4c0.3-0.9,0.5-1.8,0.8-2.7l1-2.7c0.2-0.5,0.4-0.9,0.6-1.3
			l0.6-1.3l0.6-1.3c0.2-0.4,0.5-0.8,0.8-1.2c0.5-0.8,1-1.6,1.6-2.4l1.8-2.2c0.3-0.4,0.6-0.7,1-1.1l1-1l1-1l1.1-0.9
			c0.8-0.6,1.5-1.2,2.3-1.8l2.4-1.6c0.8-0.5,1.7-0.9,2.5-1.4l1.3-0.7l1.3-0.6c0.9-0.4,1.8-0.8,2.7-1.1l2.8-0.8
			c0.9-0.3,1.9-0.4,2.8-0.6l1.4-0.3c0.5-0.1,1-0.1,1.4-0.2c1-0.1,1.9-0.2,2.9-0.3c1.9,0,3.9-0.1,5.8,0.1c7.7,0.6,15.2,3.5,21.4,8
			c3.1,2.3,5.8,5.1,8.1,8.1c2.2,3.1,4,6.5,5.3,10.1c1.2,3.6,1.9,7.3,2.1,11l0,2.8l0,0.7c0,0.2,0,0.5-0.1,0.7l-0.1,1.4
			C395.3,605.1,394.8,606.9,394.5,608.8z M394.2,608.7c0.7-3.6,1.1-7.3,0.7-10.9c-0.5-3.6-1.4-7.2-2.9-10.5c-1.6-3.3-3.6-6.3-5.9-9
			c-2.4-2.7-5.1-5-8-7c-3-1.9-6.1-3.7-9.4-4.8c-3.3-1.1-6.8-2-10.3-2.3c-1.8-0.2-3.5-0.1-5.3-0.2c-0.9,0-1.8,0.1-2.6,0.2
			c-0.4,0-0.9,0.1-1.3,0.1l-1.3,0.2c-0.9,0.2-1.7,0.3-2.6,0.5l-2.6,0.7c-0.9,0.2-1.7,0.6-2.5,0.9l-1.2,0.5l-1.2,0.6
			c-3.2,1.5-6.2,3.5-8.8,5.9c-0.6,0.6-1.4,1.2-1.9,1.8l-1.8,2c-0.6,0.7-1.1,1.4-1.6,2.1c-0.3,0.4-0.5,0.7-0.8,1.1l-0.7,1.2l-0.7,1.2
			c-0.2,0.4-0.5,0.8-0.6,1.2l-1.1,2.4c-0.4,0.8-0.6,1.7-0.9,2.5l-0.4,1.3l-0.3,1.3c-0.7,3.5-0.1,7.1,1.1,10.5c1.2,3.4,3,6.6,5.1,9.6
			c1,1.5,2.2,3,3.4,4.3c1.2,1.4,2.4,2.8,3.7,4.1c5.1,5.2,10.8,10,16.7,14.2l-1.1-0.3c1.1-0.2,2.3-0.5,3.4-0.7
			c1.1-0.2,2.3-0.5,3.4-0.8c2.3-0.6,4.5-1.2,6.8-1.8c4.5-1.3,8.9-2.7,13.3-4.4c2.2-0.9,4.3-1.8,6.4-2.9c2.1-1.1,4.1-2.3,5.9-3.7
			c1.9-1.4,3.5-3.1,5-4.9C392.5,613.1,393.6,611,394.2,608.7z"/>
	</g>
	<g>
		<path class="st16" d="M281.4,465c0,0-31.1-5.3-50.4,23.7c0,0-16.7-38.6,14.9-54.4c0,0,45.6-20.1,43.8-6.1c0,0-5.3-4.4,0,0
			c0,0,38-2.6,35.9,30.7L310.7,501C310.7,501,288.1,464.4,281.4,465z"/>
		<path class="st17" d="M281.4,465.2c-4.9-0.6-9.8-0.4-14.6,0.5c-4.8,0.8-9.4,2.5-13.7,4.6c-4.3,2.2-8.3,5-11.7,8.2
			c-0.8,0.8-1.7,1.7-2.5,2.6l-1.2,1.3l-1.1,1.4c-1.5,1.8-2.9,3.8-4.2,5.8l-1.6,2.3l-1.1-2.6c-1.9-4.5-3-9-3.8-13.7
			c-0.4-2.3-0.6-4.7-0.6-7.1c-0.1-2.4,0.1-4.8,0.4-7.1c0.6-4.7,2.1-9.4,4.5-13.5c2.3-4.2,5.8-7.6,9.6-10.4c0.9-0.7,2-1.3,3-1.9
			c1-0.6,2.1-1.1,3.1-1.7c2.1-0.9,4.3-1.8,6.5-2.6c4.3-1.7,8.7-3.3,13.1-4.8c4.4-1.4,8.9-2.8,13.5-3.6c2.3-0.4,4.7-0.6,7.2-0.3
			c1.2,0.2,2.6,0.6,3.7,1.7c0.5,0.6,0.9,1.3,1.1,2c0.2,0.7,0.2,1.4,0.1,2.1l-0.2,2.1l-1.7-1.4l-1.2-0.9l-0.6-0.5l-0.3-0.2l-0.1-0.1
			l-0.1-0.1l0,0l0,0l0,0l0,0l0,0l0,0c-0.3,0.4,3-3.6,1.6-1.9l2.4,1.9l-0.9-0.3c2.4-0.2,4.7-0.1,7,0.1c2.3,0.2,4.6,0.5,6.9,1
			c4.6,1,9.1,2.7,13,5.5c4,2.7,7.1,6.8,8.9,11.3c1.8,4.6,2.3,9.4,2,14.2l0,0.3l-0.1,0.2l-3.7,10.5l-3.8,10.5
			c-1.3,3.5-2.6,7-3.9,10.5c-1.3,3.5-2.6,7-4,10.4l-1,2.8l-1.4-2.5c-3.9-6.7-8-13.4-12.4-19.9c-1.1-1.6-2.2-3.2-3.4-4.8
			c-1.2-1.6-2.4-3.1-3.6-4.6c-1.2-1.5-2.5-3-4-4.3c-0.7-0.7-1.4-1.3-2.2-1.9C283.2,465.7,282.3,465.2,281.4,465.2z M281.4,464.9
			c1-0.1,2,0.5,2.8,1c0.8,0.6,1.6,1.2,2.3,1.9c1.4,1.3,2.8,2.8,4.1,4.2c1.3,1.5,2.6,3,3.8,4.5c1.3,1.5,2.5,3.1,3.7,4.6
			c2.4,3.1,4.7,6.3,7.1,9.5c2.3,3.2,4.6,6.4,6.8,9.7l-2.5,0.3c1.2-3.5,2.3-7.1,3.5-10.6c1.2-3.5,2.4-7.1,3.6-10.6l3.6-10.5l3.7-10.5
			l-0.1,0.5c0.2-4.3-0.1-8.7-1.6-12.6c-1.5-3.9-4.1-7.4-7.5-9.9c-3.4-2.5-7.5-4.2-11.8-5.3c-2.1-0.5-4.3-0.9-6.5-1.2
			c-2.2-0.2-4.4-0.4-6.6-0.3l-0.6,0l-0.4-0.3l-2.3-2c-1.4,1.7,1.9-2.3,1.6-1.9l0,0l0,0l0,0l0,0l0,0l0,0l0.1,0.1l0.1,0.1l0.3,0.3
			l0.6,0.5l1.1,1l-1.9,0.8c0.1-0.5,0.1-0.9,0-1.3c-0.1-0.4-0.2-0.7-0.5-1c-0.5-0.6-1.4-1-2.4-1.2c-2.1-0.4-4.4-0.3-6.6,0
			c-4.5,0.6-9,1.7-13.4,3.1c-4.4,1.3-8.8,2.9-13.1,4.6c-2.1,0.9-4.3,1.8-6.4,2.7c-1,0.5-2,1.1-3,1.7c-0.9,0.7-1.9,1.2-2.8,2
			c-0.9,0.7-1.8,1.4-2.6,2.2c-0.4,0.4-0.8,0.8-1.2,1.2l-1.1,1.3c-0.4,0.4-0.7,0.9-1.1,1.3c-0.3,0.5-0.7,0.9-1,1.4
			c-0.6,1-1.2,1.9-1.7,2.9c-2.1,4-3.2,8.4-3.6,12.9c-0.4,4.5-0.1,9,0.7,13.5c0.4,2.2,0.9,4.4,1.4,6.6c0.6,2.2,1.3,4.4,2.1,6.4
			l-2.7-0.2c0.7-1,1.4-2.1,2.2-3c0.8-1,1.6-2,2.4-2.9c1.6-1.9,3.5-3.6,5.4-5.2c3.9-3.2,8.2-5.8,12.7-7.8c2.3-1,4.6-1.8,7-2.4
			c2.4-0.6,4.8-1.1,7.2-1.5c2.4-0.4,4.9-0.5,7.3-0.6C276.5,464.4,279,464.5,281.4,464.9z"/>
	</g>
	<g>
		<path class="st18" d="M383.6,473.3c0,0-35.5-2.2-54.8,26.7c0,0-12.3-41.7,19.3-57.4c0,0,36.8-20.2,64.9-10.5c0,0-26.3,0-21,4.4
			c0,0,28.1,3.5,40.3,43L413,509.2C413,509.2,390.3,472.7,383.6,473.3z"/>
		<path class="st19" d="M383.6,473.4c-5.3-0.1-10.6,0.4-15.8,1.6c-5.2,1.1-10.2,2.9-14.9,5.2c-2.4,1.2-4.6,2.5-6.8,3.9
			c-2.2,1.5-4.3,3-6.2,4.8c-3.9,3.5-7.3,7.5-10.2,11.8l-1.4,2.1l-0.7-2.4c-1.5-5.5-2.3-11.1-2.4-16.7c-0.1-5.6,0.4-11.3,2-16.8
			c0.8-2.7,1.8-5.4,3.1-7.9c1.3-2.5,2.8-4.9,4.7-7.1c3.6-4.3,8.4-7.7,13.4-10.1c5-2.5,10.1-4.6,15.4-6.5c5.2-1.9,10.6-3.5,16-4.6
			c2.7-0.5,5.5-1,8.3-1.4c2.8-0.3,5.6-0.5,8.4-0.5c2.8,0,5.6,0.2,8.4,0.5c2.8,0.4,5.6,1,8.3,1.9l5.4,1.7L413,433
			c-3.9,0.1-7.9,0.3-11.8,0.6c-2,0.2-3.9,0.4-5.8,0.8c-0.9,0.2-1.9,0.4-2.6,0.8c-0.2,0.1-0.3,0.2-0.4,0.2c-0.1,0.1-0.1,0.1,0-0.1
			c0-0.2,0-0.3,0-0.2c0,0,0.2,0.2,0.3,0.3l-0.6-0.3c2.8,0.4,5.2,1.3,7.7,2.3c1.2,0.5,2.4,1,3.6,1.7c0.6,0.3,1.2,0.6,1.8,0.9l1.7,1
			c4.5,2.8,8.5,6.3,12,10.2l2.5,3.1c0.2,0.3,0.4,0.5,0.6,0.8l0.6,0.8l1.1,1.6c1.6,2.1,2.8,4.5,4,6.8c0.7,1.1,1.2,2.3,1.7,3.5
			l1.6,3.6c0.9,2.5,1.7,4.9,2.6,7.4l0.2,0.6l-0.4,0.6c-3.2,5-6.5,9.9-9.8,14.8l-4.9,7.4l-5,7.3l-0.8,1.2l-0.7-1.2
			c-4-6.7-8.2-13.3-12.7-19.8c-2.2-3.2-4.6-6.4-7.1-9.4c-1.3-1.5-2.6-2.9-4-4.3c-0.7-0.7-1.5-1.3-2.2-1.9
			C385.4,473.9,384.6,473.4,383.6,473.4z M383.6,473.2c1.1-0.1,2,0.5,2.8,1c0.8,0.6,1.6,1.2,2.3,1.9c1.4,1.3,2.8,2.8,4.1,4.3
			c2.6,3,5,6.1,7.4,9.2c2.4,3.1,4.7,6.3,6.9,9.5c2.3,3.2,4.5,6.4,6.6,9.7l-1.5,0l4.7-7.6l4.7-7.5c3.2-5,6.3-10,9.5-15l-0.2,1.1
			c-0.9-2.4-1.7-4.8-2.6-7.2l-1.6-3.5c-0.5-1.1-1-2.3-1.6-3.4c-1.2-2.2-2.4-4.5-3.9-6.5l-1.1-1.6l-0.5-0.8c-0.2-0.3-0.4-0.5-0.6-0.7
			l-2.4-2.9c-3.3-3.8-7.1-7.2-11.3-9.9l-1.6-1c-0.5-0.3-1.1-0.6-1.7-0.9c-1.1-0.6-2.2-1.1-3.4-1.6c-2.3-1-4.7-1.8-7-2.2l-0.4-0.1
			l-0.2-0.2c-0.2-0.2-0.5-0.4-0.7-0.8c-0.2-0.3-0.5-1-0.3-1.6c0.1-0.6,0.5-1,0.8-1.3c0.3-0.2,0.6-0.4,0.9-0.5
			c1.1-0.5,2.1-0.7,3.1-0.9c2-0.4,4-0.6,6-0.7c4-0.3,8-0.4,12-0.4l-0.3,1.8c-2.6-0.9-5.2-1.6-7.9-2.1c-2.7-0.4-5.4-0.7-8.2-0.8
			c-2.7,0-5.5,0.1-8.2,0.3c-2.7,0.3-5.5,0.6-8.2,1.2c-10.8,2.2-21.4,5.9-31.2,11c-1.2,0.7-2.4,1.3-3.6,2c-1.1,0.8-2.3,1.5-3.3,2.4
			c-2.2,1.7-4.1,3.6-5.8,5.7c-1.7,2.1-3.1,4.5-4.3,6.9c-1.2,2.4-2.1,5-2.7,7.6c-1.3,5.3-1.8,10.7-1.6,16.2c0.1,2.7,0.3,5.5,0.7,8.2
			c0.4,2.7,0.9,5.4,1.5,8l-2-0.3c3.1-4.4,6.7-8.5,10.9-11.9c2.1-1.7,4.3-3.2,6.6-4.6c2.3-1.4,4.7-2.6,7.1-3.7
			c4.9-2.2,10-3.6,15.3-4.7C373,473.6,378.3,473,383.6,473.2z"/>
	</g>
	<g>
		<path class="st20" d="M60.6,522.5c0,0-25,21.9-30.8,56.2c0,0-28.5-29.8-12.1-63.8c0,0,16.1-28.1,45.6-30.7c0,0,13.4,1.6,20,3.5
			c0,0-3.1-10.5,24.2,20.5l6.5,41.1C114,549.4,66.4,519.3,60.6,522.5z"/>
		<path class="st21" d="M60.7,522.7c-3.9,3.7-7.5,7.8-10.7,12.1c-3.2,4.3-6,9-8.5,13.8c-1.3,2.4-2.3,4.9-3.5,7.3l-1.5,3.8
			c-0.2,0.6-0.5,1.2-0.7,1.9l-0.6,1.9c-1.8,5.1-2.9,10.3-3.9,15.5l-0.6,3l-2.1-2.2c-1.9-2-3.5-4.1-5.1-6.3c-1.5-2.2-3-4.5-4.2-6.8
			c-2.5-4.7-4.6-9.7-5.9-14.9c-0.7-2.6-1.2-5.2-1.5-7.9c-0.3-2.7-0.4-5.3-0.3-8c0.1-1.3,0.1-2.7,0.3-4c0.1-1.3,0.4-2.6,0.6-3.9
			c0.2-1.3,0.6-2.6,0.9-3.9l0.6-1.9c0.2-0.6,0.4-1.3,0.6-1.9c0.5-1.2,0.9-2.5,1.5-3.7l0.8-1.8c0.3-0.6,0.7-1.2,1.1-1.7
			c1.5-2.2,3.1-4.3,4.7-6.4c3.4-4.1,7.1-7.8,11.2-11.2c4.1-3.4,8.7-6.2,13.5-8.4c2.4-1.1,5-2,7.6-2.7c2.6-0.7,5.2-1.2,7.9-1.5l0.1,0
			l0.2,0c3.4,0.4,6.8,0.8,10.1,1.3c3.4,0.5,6.7,1.1,10.2,2l-2,2c-0.2-0.6-0.2-1-0.1-1.9c0-0.2,0.1-0.4,0.2-0.7
			c0.2-0.3,0.3-0.5,0.6-0.7c0.3-0.2,0.5-0.3,0.8-0.4c0.3-0.1,0.5-0.1,0.7-0.1c0.4,0,0.7,0.1,1,0.2c0.3,0.1,0.5,0.2,0.7,0.3
			c0.4,0.2,0.8,0.4,1.1,0.6c1.4,0.9,2.5,1.8,3.7,2.8c2.3,1.9,4.4,4,6.4,6.1c2.1,2.1,4.1,4.2,6.1,6.3c2,2.1,3.9,4.3,5.9,6.5l0.4,0.4
			l0.1,0.5l1.6,10.3c0.6,3.4,1.1,6.9,1.6,10.3l1.6,10.3l1.5,10.3l0.5,3.6l-3-2c-4.2-2.8-8.4-5.5-12.6-8.2c-4.2-2.7-8.5-5.4-12.8-8
			c-4.3-2.6-8.6-5.1-13.1-7.4c-2.2-1.1-4.5-2.2-6.8-3.1c-1.2-0.5-2.3-0.9-3.5-1.2c-0.6-0.2-1.2-0.3-1.8-0.4
			C61.8,522.4,61.1,522.5,60.7,522.7z M60.5,522.4c0.7-0.3,1.3-0.3,2-0.3c0.6,0.1,1.3,0.2,1.9,0.3c1.2,0.3,2.4,0.7,3.6,1.2
			c2.4,0.9,4.7,1.9,7,3c4.6,2.1,9.1,4.4,13.6,6.7c8.9,4.7,17.8,9.5,26.4,14.7l-2.5,1.6l-1.8-10.3l-1.7-10.3
			c-0.6-3.4-1.1-6.8-1.7-10.3l-1.6-10.3l0.4,0.9c-1.9-2.2-3.8-4.3-5.7-6.5c-1.9-2.1-3.9-4.3-5.9-6.3c-2-2.1-4-4.1-6.1-6
			c-1-0.9-2.1-1.8-3.2-2.5c-0.3-0.2-0.5-0.3-0.8-0.4c-0.2-0.1-0.5-0.2-0.4-0.2c0.1,0,0.1,0,0.2,0c0.1,0,0.2-0.1,0.3-0.2
			c0.1-0.1,0.2-0.2,0.2-0.3c0,0,0.1-0.2,0.1-0.1c0-0.1,0,0.2,0,0.3l1,2.8l-3-0.8c-1.6-0.4-3.2-0.8-4.8-1.2c-1.6-0.4-3.3-0.7-4.9-1
			c-3.3-0.6-6.7-1.1-10-1.6l0.3,0c-2.5,0.2-5.1,0.6-7.6,1.1c-2.5,0.6-5,1.3-7.3,2.3c-4.8,1.9-9.3,4.5-13.4,7.7
			c-4.1,3.1-7.9,6.8-11.2,10.8c-1.7,2-3.2,4.1-4.7,6.3c-0.3,0.5-0.7,1.1-1,1.6l-0.8,1.8c-0.6,1.2-1,2.4-1.4,3.6
			c-0.2,0.6-0.4,1.2-0.6,1.9l-0.5,1.9c-0.3,1.3-0.6,2.5-0.8,3.8c-0.2,1.3-0.4,2.6-0.4,3.8c-0.1,1.3-0.1,2.6-0.1,3.9
			c0,2.6,0.2,5.1,0.6,7.7c0.4,2.5,1,5,1.7,7.5c0.7,2.5,1.6,4.9,2.7,7.2c1,2.3,2.2,4.6,3.5,6.9c2.5,4.4,5.5,8.7,8.8,12.5l-2.6,0.8
			l0.9-4l0.4-2c0.2-0.7,0.4-1.3,0.6-2l1.2-4c0.4-1.3,1-2.6,1.5-3.9l0.7-1.9c0.3-0.6,0.6-1.3,0.8-1.9l1.7-3.7c1.3-2.4,2.5-4.9,4-7.2
			c2.8-4.7,5.9-9.2,9.3-13.4c0.8-1.1,1.7-2.1,2.6-3.2l2.7-3.1C56.5,526.2,58.4,524.3,60.5,522.4z"/>
	</g>
	<g>
		<path d="M164.4,555.6c0,0-30.7,7.3-37.2,41.4c0,0-30.4-29-7.4-55.9c0,0-12.5-28,17.1-30.1c0,0,14.3,5.4,20.9,7.4
			c0,0,27.2-7.7,53.9,23.9l-0.2,44.1C211.3,586.4,170.3,552.4,164.4,555.6z"/>
		<path class="st22" d="M164.4,555.7c-2.4,0.6-4.6,1.5-6.9,2.5c-2.2,1-4.4,2.2-6.4,3.5c-4.1,2.6-7.8,5.9-11,9.5
			c-3.2,3.7-5.8,7.8-7.8,12.2c-1.9,4.4-3.3,9-4.2,13.8l-0.4,2l-1.5-1.4c-2-1.9-3.6-3.9-5.3-6c-1.6-2.1-3.1-4.3-4.4-6.6
			c-2.7-4.6-4.7-9.6-5.8-14.8c-0.5-2.6-0.7-5.3-0.6-8c0.1-2.7,0.5-5.3,1.3-7.9l0.3-1l0.3-0.9c0.2-0.6,0.5-1.3,0.7-1.9
			c0.6-1.2,1.1-2.4,1.8-3.5c1.3-2.3,2.9-4.4,4.6-6.4l-0.1,0.5c-1.3-3.4-2.2-6.9-2.5-10.5c-0.3-3.6,0.1-7.3,1.7-10.6
			c1.6-3.3,4.5-5.9,7.8-7.3c3.3-1.5,6.9-2.2,10.5-2.5l0.1,0l0.1,0c3.5,1.2,7,2.5,10.4,3.7c3.5,1.2,7,2.4,10.5,3.4l-0.5,0
			c5.3-1.3,10.6-1.1,15.8-0.4c5.2,0.8,10.3,2.5,15,4.7l3.5,1.8c0.3,0.2,0.6,0.3,0.9,0.5l0.8,0.5l1.7,1.1c2.3,1.3,4.3,3,6.4,4.6
			c1.1,0.8,2,1.7,3,2.6l2.9,2.7c1.8,1.9,3.6,3.8,5.3,5.8l0.3,0.4l0,0.5c0,7.4-0.1,14.7-0.2,22.1l-0.1,11c-0.1,3.7-0.1,7.4-0.2,11
			l-0.1,2.4l-1.8-1.5c-3.6-3.1-7.2-6.1-10.9-9.1c-3.7-3-7.4-6-11.1-8.8c-3.8-2.9-7.6-5.7-11.5-8.3c-2-1.3-4-2.5-6.1-3.6
			c-1-0.5-2.1-1-3.2-1.4c-0.6-0.2-1.1-0.4-1.7-0.5C165.5,555.5,164.9,555.4,164.4,555.7z M164.3,555.4c0.6-0.3,1.2-0.2,1.8-0.2
			c0.6,0.1,1.2,0.3,1.7,0.5c1.1,0.4,2.2,0.9,3.3,1.4c2.1,1.1,4.2,2.3,6.2,3.5c4,2.5,8,5.1,11.9,7.8c3.9,2.7,7.7,5.5,11.5,8.3
			c3.8,2.8,7.6,5.7,11.3,8.7l-1.9,0.9c-0.1-3.7-0.1-7.4-0.1-11l0-11c0-7.4,0-14.7,0.1-22.1l0.3,0.9c-1.7-1.9-3.4-3.8-5.1-5.6
			l-2.8-2.6c-0.9-0.9-1.8-1.8-2.8-2.5c-2-1.6-3.9-3.2-6.1-4.5l-1.6-1l-0.8-0.5c-0.3-0.2-0.6-0.3-0.8-0.5l-3.3-1.8
			c-4.5-2.2-9.3-3.9-14.3-4.8L171,519c-0.6-0.1-1.3-0.1-1.9-0.2c-1.3-0.2-2.5-0.2-3.8-0.2c-2.5,0-5.1,0.2-7.4,0.7l-0.3,0.1l-0.2-0.1
			c-3.5-1.2-7-2.5-10.5-3.7c-3.5-1.3-6.9-2.6-10.4-4l0.2,0c-3.5,0.2-7,0.8-10.2,2.2c-3.2,1.3-5.9,3.7-7.5,6.8
			c-1.6,3.1-1.9,6.7-1.6,10.2c0.1,1.7,0.5,3.5,0.9,5.2c0.4,1.7,1,3.4,1.7,4.9l0.1,0.3l-0.2,0.3c-1.6,2-3.1,4.1-4.3,6.4
			c-0.6,1.1-1.1,2.3-1.6,3.5c-0.2,0.6-0.4,1.2-0.6,1.8l-0.3,0.9l-0.2,0.9c-0.7,2.4-1,5-1,7.5c0,2.5,0.3,5.1,0.8,7.5
			c1.1,4.9,3.2,9.7,5.7,14.1c2.6,4.4,5.7,8.6,9.2,12.2l-1.8,0.6c0.3-1.2,0.5-2.4,0.9-3.6c0.4-1.2,0.7-2.4,1.1-3.6l0.6-1.8l0.7-1.7
			c0.5-1.2,1-2.3,1.6-3.4c2.3-4.4,5.1-8.5,8.5-12.1c3.4-3.6,7.3-6.7,11.5-9.2c2.1-1.3,4.3-2.4,6.5-3.4
			C159.6,556.9,162,556,164.3,555.4z"/>
	</g>
	<g>
		<path class="st23" d="M268.3,553c0,0-31.1-5.3-50.4,23.7c0,0-16.7-38.6,14.9-54.4c0,0-11.8-10.9,16.2-1.2c0,0,1.8-3.6,7,0.8
			c0,0,48.7-2.2,60.9,37.2L303.4,596C303.4,596,275,552.4,268.3,553z"/>
		<path class="st24" d="M268.3,553.2c-4.9-0.6-9.8-0.4-14.6,0.4c-4.8,0.8-9.5,2.4-13.8,4.5c-4.3,2.1-8.3,4.9-11.9,8.2
			c-0.9,0.8-1.7,1.6-2.5,2.5l-1.2,1.3l-1.2,1.4c-0.8,0.9-1.5,1.9-2.2,2.8c-0.7,1-1.4,2-2.1,2.9l-1.2,1.7l-0.8-1.9
			c-2-5-3.3-10.1-4-15.4c-0.7-5.3-0.6-10.7,0.5-15.9c0.5-2.6,1.4-5.2,2.5-7.6c1.1-2.4,2.5-4.7,4.2-6.7l0.6-0.8l0.7-0.7
			c0.5-0.5,0.9-1,1.4-1.4c1-0.9,2-1.8,3-2.5c2.1-1.6,4.4-2.9,6.7-4.1l-0.1,0.7c-0.8-0.7-1.5-1.5-2-2.5c-0.3-0.5-0.5-1-0.6-1.6
			c0-0.3,0.1-0.7,0.3-1c0.2-0.3,0.5-0.4,0.8-0.6c1.1-0.4,2.2-0.3,3.2-0.2c1,0.1,2.1,0.3,3.1,0.5c4,0.8,8,2.1,11.9,3.4l-0.6,0.2
			c0.4-0.8,1.1-1.2,1.8-1.5c0.8-0.2,1.6-0.2,2.3,0c0.7,0.2,1.4,0.5,2,0.9c0.6,0.4,1.2,0.8,1.7,1.2l-0.4-0.1
			c6.5-0.2,12.9,0.4,19.3,1.7c6.3,1.3,12.5,3.4,18.3,6.4c2.9,1.5,5.6,3.3,8.2,5.3c1.3,1,2.5,2.1,3.7,3.2c1.1,1.2,2.3,2.3,3.4,3.6
			c1.1,1.2,2,2.6,3,3.9l1.3,2.1c0.5,0.7,0.8,1.4,1.2,2.1c1.6,2.9,2.8,5.9,3.9,9.1l0.1,0.4l-0.2,0.5l-3.4,9.2l-3.4,9.2
			c-2.3,6.1-4.6,12.2-6.9,18.3l-0.9,2.3l-1.3-2c-2.5-3.9-5-7.8-7.6-11.7c-2.6-3.9-5.2-7.8-7.8-11.6c-2.7-3.8-5.4-7.6-8.4-11.2
			c-1.5-1.8-3-3.6-4.6-5.2c-0.8-0.8-1.7-1.6-2.6-2.3c-0.5-0.4-0.9-0.7-1.4-1C269.4,553.4,268.9,553.2,268.3,553.2z M268.3,552.9
			c0.6,0,1.2,0.2,1.7,0.5c0.5,0.3,1,0.6,1.5,1c0.9,0.7,1.8,1.5,2.6,2.3c1.7,1.6,3.3,3.4,4.8,5.1c3,3.5,6,7.2,8.9,10.9
			c5.7,7.4,11.3,14.9,16.6,22.7l-2.1,0.2c2.2-6.2,4.4-12.3,6.6-18.5l3.4-9.2l3.4-9.2l0,0.9c-1-2.9-2-5.9-3.6-8.6
			c-0.3-0.7-0.7-1.4-1.1-2l-1.2-2c-0.9-1.2-1.8-2.6-2.8-3.7c-1-1.2-2.1-2.3-3.1-3.5c-1.1-1.1-2.3-2.1-3.5-3.1c-2.4-2-5-3.7-7.8-5.2
			c-2.7-1.5-5.6-2.8-8.6-3.9c-3-1.1-6-2-9.1-2.7c-6.1-1.5-12.5-2.3-18.8-2.3l-0.2,0l-0.2-0.1c-0.5-0.4-1-0.8-1.6-1.2
			c-0.5-0.3-1.1-0.6-1.7-0.8c-0.6-0.2-1.2-0.2-1.7-0.1c-0.5,0.2-1,0.6-1.3,1l-0.2,0.4l-0.4-0.1c-3.9-1.3-7.7-2.6-11.7-3.5
			c-1-0.2-2-0.4-3-0.5c-1-0.1-2-0.1-2.8,0.2c-0.4,0.2-0.6,0.4-0.6,0.8c0,0.4,0.2,0.8,0.5,1.2c0.5,0.8,1.2,1.6,1.9,2.2l0.4,0.4
			l-0.5,0.3c-4.5,2.4-8.8,5.5-11.8,9.7c-1.6,2-2.8,4.2-3.8,6.6c-1,2.3-1.7,4.8-2.1,7.3c-0.4,2.5-0.6,5-0.6,7.6
			c0,2.5,0.2,5.1,0.5,7.6c0.3,2.5,0.8,5,1.5,7.5c0.6,2.5,1.4,5,2.3,7.3l-2-0.2c2.8-4.1,6.1-7.9,9.9-11.1c3.8-3.2,8.1-5.9,12.6-7.8
			c2.3-1,4.6-1.8,7-2.5c2.4-0.7,4.8-1.1,7.2-1.5c2.4-0.4,4.9-0.5,7.3-0.6C263.4,552.5,265.9,552.6,268.3,552.9z"/>
	</g>
	<g>
		<path class="st25" d="M481.6,557.8c-7.6,19.4-50.1,20.8-50.1,20.8s-30.1-30-22.4-49.4c7.6-19.4,30.1-28.7,50.1-20.8
			C479.2,516.3,489.3,538.5,481.6,557.8z"/>
		<path class="st26" d="M481.8,557.9c-1.8,4.5-5.3,8-9.2,10.7c-4,2.7-8.3,4.9-12.8,6.5c-4.5,1.7-9.2,2.9-13.9,3.8
			c-2.4,0.4-4.7,0.8-7.1,1c-2.4,0.3-4.8,0.4-7.2,0.5l-0.9,0l-0.5-0.6c-5.1-5.6-9.5-11.6-13.4-18c-1-1.6-1.9-3.2-2.8-4.8
			c-0.4-0.8-0.9-1.6-1.3-2.5c-0.4-0.8-0.8-1.7-1.2-2.5c-1.6-3.4-2.9-6.9-3.7-10.6c-0.4-1.8-0.7-3.7-0.7-5.6c-0.1-1,0-1.9,0.1-2.9
			c0-0.5,0.2-1,0.2-1.4l0.1-0.7c0.1-0.2,0.1-0.5,0.2-0.7c0.1-0.5,0.3-0.9,0.4-1.4l0.5-1.3c0.4-0.9,0.7-1.8,1.1-2.6l1.4-2.5l0.3-0.6
			l0.4-0.6l0.8-1.2l0.8-1.2c0.3-0.4,0.6-0.7,0.9-1.1c0.6-0.7,1.2-1.5,1.9-2.2l2.1-2l0.5-0.5l0.6-0.5l1.1-0.9l1.2-0.9
			c0.4-0.3,0.8-0.5,1.2-0.8c0.8-0.5,1.6-1,2.5-1.5l2.6-1.3l0.7-0.3l0.7-0.3l1.4-0.5l1.4-0.5c0.5-0.2,0.9-0.3,1.4-0.4
			c0.9-0.2,1.9-0.5,2.8-0.7l2.9-0.5l0.7-0.1l0.7-0.1l1.5-0.1c1.9-0.2,3.9-0.1,5.8,0c1.9,0.2,3.9,0.4,5.8,0.9
			c7.6,1.6,14.7,5.6,20.2,11.1c2.7,2.8,4.9,6,6.7,9.4c1.7,3.5,2.8,7.2,3.5,10.9c0.6,3.8,0.6,7.5,0.3,11.3l-0.4,2.8l-0.1,0.7
			l-0.2,0.7l-0.3,1.4C483.1,554.4,482.4,556.1,481.8,557.9z M481.4,557.7c1.2-3.5,2.1-7.1,2.2-10.7c0.1-3.6-0.4-7.3-1.4-10.7
			c-1.1-3.4-2.6-6.7-4.5-9.7c-2-2.9-4.2-5.7-6.8-8c-10.2-9.5-25.5-13.2-38.9-8.7l-1.2,0.4l-0.6,0.2l-0.6,0.3l-2.4,1.1
			c-0.8,0.4-1.5,0.9-2.3,1.3c-0.4,0.2-0.8,0.4-1.1,0.7l-1.1,0.8l-1.1,0.7l-0.5,0.4l-0.5,0.4l-2,1.7c-0.6,0.6-1.2,1.3-1.9,1.9
			c-0.3,0.3-0.6,0.6-0.9,1l-0.8,1l-0.8,1l-0.4,0.5l-0.4,0.6l-1.5,2.2c-0.5,0.8-0.8,1.6-1.2,2.4l-0.6,1.2l-0.5,1.2
			c-1.2,3.3-1.2,7-0.5,10.5c0.7,3.5,1.9,7,3.6,10.3c0.8,1.6,1.7,3.2,2.7,4.8c1,1.6,2,3.1,3,4.6c2.1,3,4.5,5.8,6.9,8.5
			c2.4,2.7,5,5.4,7.5,7.9l-1.4-0.5c1.1-0.1,2.3-0.2,3.4-0.3c1.2-0.1,2.3-0.2,3.5-0.3c2.3-0.3,4.6-0.6,6.9-0.9
			c4.6-0.7,9.2-1.4,13.7-2.6c4.5-1.1,9-2.6,13-4.9c2-1.2,3.9-2.6,5.5-4.2C479.2,561.9,480.5,559.9,481.4,557.7z"/>
	</g>
	<g>
		<path class="st27" d="M469.1,516.9c0,0-28.7-13.1-54.8,9.8c0,0-6.1-41.6,28.5-48.7c0,0,28.1-12.7,52.7,3.8c0,0-12.7-4-8.7,1.6
			c0,0,26.2,10.6,27.8,51.9l-50.3,46.2C464.2,581.6,475.7,518,469.1,516.9z"/>
		<path d="M469.1,516.9c-2.3-1-4.6-1.6-7-2.2c-2.4-0.6-4.8-1-7.2-1.2c-4.9-0.5-9.8-0.3-14.6,0.6c-4.8,0.9-9.5,2.5-13.8,4.7
			c-4.3,2.2-8.4,5-12,8.3l-0.5,0.5l-0.1-0.7c-0.4-2.6-0.5-5.2-0.5-7.9c0-2.6,0.1-5.2,0.4-7.9c0.6-5.2,1.9-10.4,4.2-15.2
			c1.1-2.4,2.5-4.7,4.2-6.8c1.6-2.1,3.6-4,5.7-5.6l0.8-0.6l0.8-0.6c0.6-0.4,1.1-0.8,1.7-1.1c1.2-0.6,2.3-1.3,3.6-1.8
			c2.4-1.1,5-1.8,7.6-2.5l-0.3,0.1c2.2-1,4.4-1.7,6.6-2.4c2.2-0.7,4.5-1.2,6.8-1.6c4.6-0.9,9.3-1.2,14-1c4.7,0.2,9.4,1,13.9,2.4
			c4.5,1.4,8.8,3.5,12.8,6.1l9.9,6.5l-11.4-3.5c-0.9-0.3-1.9-0.5-2.8-0.7c-0.9-0.2-1.9-0.4-2.8-0.5c-0.5-0.1-0.9-0.1-1.3-0.1
			c-0.4,0-0.7,0.1-0.7,0.1c0,0,0.1,0,0.1-0.1c0.1-0.1,0.1-0.2,0.2-0.3c0-0.1,0-0.2,0-0.2c0,0,0,0,0,0c0,0.1,0.2,0.5,0.4,0.8
			l-0.8-0.6c0.7,0.3,1.3,0.6,1.9,0.9c0.6,0.3,1.2,0.7,1.8,1c0.6,0.3,1.1,0.7,1.7,1.1c0.5,0.4,1.1,0.8,1.6,1.2c1,0.8,2.1,1.7,3,2.6
			c0.5,0.5,1,0.9,1.5,1.4l1.4,1.5c3.6,3.9,6.5,8.4,8.9,13.2l1.6,3.6c0.1,0.3,0.3,0.6,0.4,0.9l0.3,0.9l0.6,1.9
			c0.9,2.5,1.5,5.1,2.1,7.6c0.4,1.3,0.5,2.6,0.7,3.9l0.6,3.9c0.2,2.6,0.4,5.2,0.6,7.8l0,0.6l-0.5,0.4l-51,45.5l-1,0.9l0.3-1.4
			c2.1-10.8,3.9-21.6,5.4-32.5c0.7-5.4,1.4-10.9,1.7-16.4c0.2-2.7,0.3-5.5,0.3-8.2c0-1.4-0.1-2.7-0.3-4.1c-0.1-0.7-0.2-1.4-0.5-2
			C470.1,517.7,469.8,517,469.1,516.9z M469.1,516.9c0.7,0.2,1.1,0.9,1.3,1.5c0.2,0.6,0.4,1.3,0.5,2c0.2,1.4,0.3,2.7,0.3,4.1
			c0.1,2.7-0.1,5.5-0.2,8.2c-0.4,5.5-1,10.9-1.6,16.4c-0.6,5.4-1.4,10.9-2.2,16.3c-0.8,5.4-1.6,10.9-2.5,16.3l-0.8-0.4l49.7-46.9
			l-0.5,1.1l-0.7-7.6l-0.6-3.7c-0.2-1.2-0.4-2.5-0.7-3.7c-0.6-2.4-1.2-4.9-2.1-7.2l-0.6-1.8l-0.3-0.9c-0.1-0.3-0.3-0.6-0.4-0.9
			l-1.6-3.4c-2.3-4.5-5-8.7-8.4-12.3l-1.3-1.4c-0.4-0.4-0.9-0.8-1.4-1.3c-0.9-0.9-1.9-1.6-2.8-2.4c-0.5-0.4-1-0.7-1.5-1.1
			c-0.5-0.4-1-0.7-1.5-1c-0.5-0.3-1-0.7-1.6-0.9c-0.5-0.3-1.1-0.6-1.5-0.8l-0.5-0.2l-0.2-0.4c-0.3-0.5-0.7-1-1-1.9
			c-0.1-0.3-0.1-0.5-0.1-0.8c0-0.3,0-0.6,0.1-1c0.1-0.4,0.3-0.7,0.6-0.9c0.2-0.2,0.5-0.5,0.7-0.6c1-0.5,1.6-0.5,2.3-0.5
			c0.6,0,1.2,0,1.8,0.1c1.1,0.1,2.2,0.3,3.2,0.6c1,0.2,2,0.5,3.1,0.8l-1.5,3c-3.7-2.5-7.7-4.4-11.9-5.8c-4.2-1.4-8.6-2.2-13-2.5
			c-4.4-0.3-8.9,0-13.4,0.7c-4.4,0.7-8.9,1.8-12.9,3.5l-0.1,0.1l-0.1,0c-2.5,0.5-4.9,1.1-7.3,2.1c-1.2,0.4-2.3,1-3.4,1.6
			c-0.6,0.3-1.1,0.7-1.6,1l-0.8,0.5l-0.8,0.6c-2.1,1.4-3.9,3.2-5.5,5.2c-1.6,1.9-3,4.1-4.2,6.4c-2.3,4.6-3.7,9.6-4.5,14.7
			c-0.4,2.6-0.6,5.1-0.6,7.7c-0.1,2.6,0,5.2,0.3,7.7l-0.6-0.2c3.8-3.2,7.9-5.9,12.3-8.1c4.4-2.1,9.1-3.7,14-4.5
			c4.8-0.8,9.8-1,14.6-0.5c2.4,0.3,4.9,0.7,7.2,1.2C464.5,515.2,466.8,515.9,469.1,516.9z"/>
	</g>
	<g>
		<path class="st28" d="M185.5,416.7c-5.3-4.4,21-4.4,21-4.4c-28.1-9.6-64.9,10.5-64.9,10.5c-9.7,4.8-14.8,11.8-17.3,19.2
			c0,0-29.9-21.7-31.4,15c0,0,23.8,46.4,18,53l17.3-10l-1.1-16.5c19.3-28.9,50-30,50-30c6.7-0.6,29.4,35.9,29.4,35.9l19.3-29.8
			C213.5,420.3,185.5,416.7,185.5,416.7z"/>
		<path class="st29" d="M185.4,416.9c-0.2-0.2-0.4-0.4-0.6-0.6c-0.2-0.2-0.3-0.5-0.2-0.8c0.2-0.6,0.7-0.9,1.1-1.1
			c0.9-0.5,1.9-0.7,2.9-1c2-0.4,3.9-0.7,5.9-0.9c4-0.4,8-0.6,11.9-0.7l-0.2,1.2c-7.4-2.4-15.2-2.8-22.9-2
			c-7.7,0.8-15.3,2.6-22.6,5.1c-3.7,1.2-7.3,2.6-10.9,4.2c-3.5,1.5-7.1,3.3-10.4,5.2c-6.6,3.8-11.8,9.8-14.2,17.1l-0.5,1.4l-1.2-0.9
			c-3.1-2.2-6.6-4-10.2-5.2c-3.6-1.2-7.5-1.7-11-0.3c-1.7,0.7-3.2,1.8-4.4,3.3c-1.1,1.5-2.1,3.2-2.7,5c-1.3,3.6-1.8,7.5-2,11.4
			l-0.1-0.2c2.1,4.3,4.1,8.5,6.1,12.9c2,4.3,3.9,8.7,5.7,13c1.8,4.4,3.5,8.8,5,13.4c0.7,2.3,1.4,4.6,1.8,6.9
			c0.2,1.2,0.4,2.4,0.4,3.6c0,0.6,0,1.3-0.2,1.9c-0.1,0.6-0.4,1.3-0.8,1.9l-0.8-0.9l17.2-10.2l-0.4,0.8l-1.3-16.4l0-0.3l0.2-0.3
			c5-7.6,11.5-14.2,19-19.3l1.4-1l1.5-0.9c1-0.6,2-1.2,2.9-1.7c2-1,4.1-2.1,6.2-2.9c4.2-1.8,8.6-3.1,13-4.1c1.1-0.2,2.2-0.4,3.4-0.6
			c1.2-0.2,2.2-0.3,3.5-0.4c0.9,0,1.7,0.3,2.2,0.6c0.6,0.3,1.1,0.6,1.6,1c1,0.7,1.9,1.5,2.7,2.3c3.3,3.3,6.1,6.8,8.8,10.4
			c2.7,3.6,5.3,7.3,7.8,11c2.5,3.7,4.9,7.5,7.3,11.3l-2.3,0l19.5-29.7l-0.1,0.9c-0.8-2.4-1.6-4.8-2.5-7.2l-1.5-3.5
			c-0.5-1.2-1-2.4-1.6-3.5c-1.2-2.2-2.3-4.5-3.8-6.6l-1-1.6l-0.5-0.8c-0.2-0.3-0.4-0.5-0.6-0.8l-2.4-3c-3.3-3.8-7.1-7.3-11.4-10.1
			C195.2,420.2,190.5,417.9,185.4,416.9z M185.5,416.6c5.1,0.8,10,2.9,14.4,5.6c4.4,2.7,8.4,6.1,11.9,10l2.5,3
			c0.2,0.3,0.4,0.5,0.6,0.8l0.6,0.8l1.1,1.6c1.6,2.1,2.8,4.4,4.1,6.7c0.7,1.1,1.2,2.3,1.7,3.5l1.6,3.5c0.9,2.4,1.8,4.9,2.7,7.3
			l0.2,0.4l-0.3,0.4l-19.1,30l-1.1,1.8l-1.1-1.8c-4.8-7.5-9.8-14.9-15.1-22c-2.7-3.5-5.4-7-8.5-10.1c-0.8-0.7-1.6-1.5-2.4-2.1
			c-0.4-0.3-0.8-0.6-1.2-0.8c-0.4-0.2-0.7-0.3-1-0.3c-1,0-2.1,0.2-3.2,0.3c-1.1,0.2-2.2,0.3-3.2,0.5c-4.3,0.8-8.5,2.1-12.6,3.8
			c-2.1,0.8-4,1.8-6,2.8c-1,0.5-1.9,1.1-2.9,1.6l-1.4,0.8l-1.4,0.9c-7.3,4.9-13.7,11.1-18.6,18.4l0.2-0.6l0.9,16.5l0,0.5l-0.5,0.3
			l-17.4,9.8l-3.2,1.8l2.4-2.7c0.6-0.7,0.8-1.9,0.8-3c0-1.1-0.1-2.3-0.3-3.4c-0.4-2.3-1-4.6-1.7-6.8c-1.4-4.5-3.1-8.9-4.8-13.3
			c-1.8-4.4-3.7-8.7-5.7-13c-2-4.3-4.1-8.6-6.3-12.8l-0.1-0.1l0-0.1l0.2-3c0.1-1,0.2-2,0.3-3c0.1-1,0.3-2,0.5-3c0.3-1,0.5-2,0.8-2.9
			c0.6-1.9,1.5-3.8,2.8-5.4c1.2-1.7,2.9-3,4.9-3.9c1.9-0.8,4.1-1.1,6.1-1.1c2.1,0.1,4.1,0.5,6,1.1c1.9,0.6,3.8,1.4,5.6,2.2
			c1.8,0.9,3.5,1.9,5.3,3l-1.7,0.5c1.2-3.8,3.2-7.5,5.8-10.6c2.6-3.1,5.8-5.7,9.2-7.8c3.5-2,7-3.7,10.7-5.2
			c3.6-1.5,7.3-2.9,11.1-4.1c3.8-1.2,7.6-2.3,11.4-3.1c3.9-0.8,7.8-1.5,11.7-1.7c7.9-0.6,16,0,23.5,2.6l3.6,1.3l-3.8,0
			c-4,0-7.9,0-11.9,0.3c-2,0.1-3.9,0.3-5.9,0.7c-1,0.2-1.9,0.4-2.8,0.8c-0.4,0.2-0.9,0.5-1,0.8C184.8,415.9,185.2,416.4,185.5,416.6
			z"/>
	</g>
	<g>
		<path class="st30" d="M405.1,636.8l-0.5-0.7C404.7,636.4,404.8,636.6,405.1,636.8z"/>
		<path class="st31" d="M419.1,572.4c-12.3-39.5-40.3-43-40.3-43c-5.3-4.4,21-4.4,21-4.4c-28.1-9.6-64.9,10.5-64.9,10.5
			c-31.6,15.8-14.9,54.4-14.9,54.4c19.3-28.9,50.4-23.7,50.4-23.7c6.5-0.6,22.6,31,24.1,33.3l-3.7,15.7l13.7,20.8
			c-1.1-5.8,33.8-33.9,33.8-33.9C446.3,571.9,419.1,572.4,419.1,572.4z"/>
	</g>
</g>
<g>
	<path class="st32" d="M177,324.8c5.2-15,9.7-30.3,12.6-45.7c1.8-7.6,3.3-15.3,3.8-23c0.1-1.9,0.2-3.9,0.2-5.8
		c-0.1-1.9-0.1-3.8-0.2-5.7c-0.3-3.8-1.1-7.7-1.4-11.8c-0.4-4.1-0.3-8.4,0.8-12.6c1-4.2,3.1-8.1,5.7-11.5c2.6-3.4,5.7-6.2,9-8.7
		c3.3-2.5,6.7-4.7,10.3-6.7c1.8-1,3.6-1.9,5.4-2.8c0.9-0.4,1.8-0.9,2.8-1.3c1-0.4,1.9-0.8,2.9-1.2c3.8-1.5,7.7-2.7,11.7-3.7
		c7.9-2,16-3.1,24.1-3.1c8.1-0.1,16.3,0.9,24.2,2.8l3,0.7l1.5,0.4l1.4,0.5l5.8,1.9c3.7,1.4,7.5,2.7,11.2,4.4
		c3.7,1.7,7.4,3.8,10.7,6.5c3.3,2.7,6.1,5.9,8.4,9.5c4.4,7.3,6.4,15.6,6.9,23.8c0.3,4.1,0.3,8.2,0.1,12.2l-0.2,3
		c0,0.5-0.1,1-0.1,1.5l0,1.4c0,0.9-0.1,1.9-0.1,2.8l0.1,2.9c0.4,7.7,1.8,15.5,3.2,23.2c1.1,7.8,2.6,15.6,4.2,23.3l1.3,5.8
		c0.5,1.9,0.9,3.9,1.4,5.8c0.5,1.9,1,3.8,1.5,5.7c0.3,1,0.6,1.9,0.9,2.8c0.3,1,0.7,1.8,1.1,2.8c-0.5-0.8-1.1-1.7-1.4-2.6
		c-0.4-0.9-0.9-1.8-1.2-2.7c-0.8-1.8-1.5-3.7-2.2-5.6c-0.7-1.9-1.3-3.8-2-5.6l-1.9-5.7c-2.4-7.6-4.6-15.3-6.5-23.1
		c-0.9-3.9-1.4-7.9-2-11.8l-0.8-6c-0.2-2-0.4-4-0.5-6.1l-0.1-3.1c-0.1-1,0-2.1,0.1-3.1l0.1-1.6c0-0.5,0.1-1,0.1-1.5l0.2-2.9
		c0.2-3.9,0.2-7.7-0.1-11.6c-0.5-7.6-2.4-15.2-6.2-21.5c-2-3.1-4.4-5.9-7.3-8.3c-2.9-2.3-6.1-4.2-9.6-5.8c-3.5-1.6-7.2-2.9-10.9-4.3
		l-5.5-1.8l-1.4-0.5l-1.4-0.3l-2.8-0.7c-7.5-1.8-15.2-2.7-23-2.6c-7.7,0.1-15.5,1.1-23,3c-3.8,0.9-7.5,2.1-11,3.5
		c-0.9,0.4-1.8,0.7-2.6,1.1c-0.8,0.4-1.7,0.8-2.6,1.3c-1.8,0.8-3.5,1.8-5.2,2.7c-3.4,1.9-6.6,4-9.7,6.3c-3,2.3-5.8,4.9-8,7.8
		c-2.3,2.9-3.9,6.2-4.8,9.7c-0.9,3.5-1,7.2-0.7,11c0.3,3.8,1,7.7,1.4,11.8c0.1,2.1,0.2,4.1,0.2,6.2c0,2-0.2,4.1-0.2,6.1
		c-0.3,4-0.8,8.1-1.5,12c-0.3,2-0.7,4-1.1,5.9c-0.4,2-0.7,4-1.3,5.9c-2.2,7.7-4.8,15.3-7.8,22.7C183.8,310.4,180.5,317.7,177,324.8z
		"/>
	<path class="st32" d="M214,324.8c3.1,5,6.4,9.8,10,14.3c2.9,4.9,6.2,9.6,9.9,13.8c3.7,4.2,8,7.9,12.8,10.4c2.4,1.2,4.9,2.2,7.5,2.7
		c1.3,0.2,2.6,0.4,3.9,0.4c0.3,0,0.6,0,1,0l1.1,0l2.2,0c3,0.1,5.8,0.2,8.5,0c2.7-0.2,5.4-0.6,7.8-1.6c4.9-1.8,8.9-5.6,12.2-10.1
		c1.7-2.2,3.2-4.6,4.5-7.1c0.7-1.2,1.3-2.5,2-3.8c0.3-0.6,0.6-1.3,0.9-1.9c0.3-0.7,0.5-1.3,0.9-1.9c3-4.9,5.8-10.1,8.6-15.2
		c-0.9,5.8-2.3,11.6-4.1,17.3c-1.2,2.7-2.6,5.4-4,8c-1.4,2.6-3.1,5.2-4.9,7.6c-1.8,2.4-3.9,4.8-6.3,6.8c-2.4,2-5.1,3.8-8.2,4.9
		c-3,1.2-6.2,1.7-9.3,1.9c-3.1,0.2-6.1,0-8.9,0l-2.1,0l-1.1,0l-1.2,0c-1.6,0-3.2-0.2-4.8-0.5c-3.1-0.6-6.1-1.7-8.9-3.1
		c-5.6-2.9-10.2-7-14.2-11.5c-4-4.5-7.4-9.4-10.5-14.5C217.2,336.2,215.2,330.6,214,324.8z"/>
</g>
<g>
	<rect x="291.2" y="137.1" class="st33" width="1721.3" height="458.4"/>
	<path class="st3" d="M685.6,220.2l4.3,3.8c-9.6,8.8-21,13.1-34,13.1c-14,0-25.9-4.9-35.8-14.8c-9.8-9.8-14.8-21.8-14.8-35.8
		c0-13.9,4.9-25.8,14.8-35.7c9.8-9.9,21.8-14.8,35.8-14.8c13,0,24.4,4.4,34,13.2l-4.3,3.8c-8.5-7.5-18.4-11.2-29.7-11.2
		c-12.4,0-23,4.4-31.7,13.1c-8.8,8.8-13.2,19.3-13.2,31.7c0,12.4,4.4,23,13.2,31.8c8.8,8.8,19.4,13.1,31.7,13.1
		C667.2,231.4,677.1,227.6,685.6,220.2z"/>
	<path class="st3" d="M707.4,200.6c-0.1,1-0.2,2-0.2,3.1c0,7.7,2.7,14.3,8.2,19.8s12.1,8.2,19.8,8.2c7.7,0,14.3-2.7,19.8-8.2
		c0.9-0.9,1.8-1.9,2.7-2.9l5.9,2.1c-0.7,1.2-2.2,2.8-4.4,5c-6.6,6.7-14.6,10-24,10c-9.3,0-17.3-3.3-23.9-9.9
		c-6.6-6.6-10-14.6-10-23.9c0-9.4,3.3-17.4,10-24c6.6-6.6,14.6-9.9,23.9-9.9c9.4,0,17.4,3.3,24,9.9c5.8,5.9,8.7,12.8,8.7,20.9H707.4
		z M708.5,194.9h53.2c-1.3-4.2-3.5-7.9-6.6-11c-5.5-5.5-12.1-8.2-19.8-8.2c-7.7,0-14.3,2.7-19.8,8.2
		C712.1,187.2,709.8,190.9,708.5,194.9z"/>
	<path class="st3" d="M786.6,188.8v47.1H781v-60.6h5.6v3.9c5-5,10.9-7.5,17.6-7.5c7.2,0,13,2.2,17.5,6.7c4.5,4.5,6.8,10.1,6.9,16.9
		v40.6H823v-40c0-5.2-1.9-9.6-5.6-13.2c-3.7-3.6-8.1-5.4-13.3-5.4c-5.1,0-9.5,1.8-13.2,5.4C789,184.6,787.5,186.7,786.6,188.8z"/>
	<path class="st3" d="M853.6,175.3v-25.8h5.5v25.8h12.4v5.6h-12.4v55h-5.5v-55h-12.4v-5.6H853.6z"/>
	<path class="st3" d="M905.6,180.1c-4,0.6-7.8,3.1-11.7,7.5c-3.8,4.4-5.7,8.9-5.7,13.4v34.8h-5.6v-60.6h5.6v13.1
		c2.3-6.1,7.1-10.6,14.3-13.6L905.6,180.1z"/>
	<path class="st3" d="M948.1,169.8c9.4,0,17.4,3.3,24,9.9c6.6,6.6,9.9,14.6,9.9,24c0,9.3-3.3,17.3-9.9,23.9
		c-6.6,6.6-14.6,9.9-24,9.9c-9.3,0-17.3-3.3-23.9-9.9c-6.6-6.6-10-14.6-10-23.9c0-9.4,3.3-17.4,10-24
		C930.8,173.1,938.8,169.8,948.1,169.8z M928.3,183.9c-5.5,5.5-8.2,12.1-8.2,19.8c0,7.7,2.7,14.3,8.2,19.8s12.1,8.2,19.8,8.2
		c7.7,0,14.3-2.7,19.8-8.2c5.5-5.4,8.2-12,8.2-19.8c0-7.7-2.7-14.3-8.2-19.8c-5.5-5.5-12.1-8.2-19.8-8.2
		C940.4,175.7,933.8,178.4,928.3,183.9z"/>
	<path class="st3" d="M1115.1,220.2l4.3,3.8c-9.6,8.8-21,13.1-34,13.1c-14,0-25.9-4.9-35.8-14.8c-9.8-9.8-14.8-21.8-14.8-35.8
		c0-13.9,4.9-25.8,14.8-35.7c9.8-9.9,21.8-14.8,35.8-14.8c13,0,24.4,4.4,34,13.2l-4.3,3.8c-8.5-7.5-18.4-11.2-29.7-11.2
		c-12.4,0-23,4.4-31.7,13.1c-8.8,8.8-13.2,19.3-13.2,31.7c0,12.4,4.4,23,13.2,31.8c8.8,8.8,19.4,13.1,31.7,13.1
		C1096.7,231.4,1106.6,227.6,1115.1,220.2z"/>
	<path class="st3" d="M1166.1,169.8c9.4,0,17.4,3.3,24,9.9c6.6,6.6,9.9,14.6,9.9,24c0,9.3-3.3,17.3-9.9,23.9
		c-6.6,6.6-14.6,9.9-24,9.9c-9.3,0-17.3-3.3-23.9-9.9c-6.6-6.6-10-14.6-10-23.9c0-9.4,3.3-17.4,10-24
		C1148.9,173.1,1156.8,169.8,1166.1,169.8z M1146.3,183.9c-5.5,5.5-8.2,12.1-8.2,19.8c0,7.7,2.7,14.3,8.2,19.8s12.1,8.2,19.8,8.2
		c7.7,0,14.3-2.7,19.8-8.2c5.5-5.4,8.2-12,8.2-19.8c0-7.7-2.7-14.3-8.2-19.8c-5.5-5.5-12.1-8.2-19.8-8.2
		C1158.4,175.7,1151.8,178.4,1146.3,183.9z"/>
	<path class="st3" d="M1215.5,175.3h5.6v1.5c3.4-3.4,7.6-5,12.4-5c5,0,9.2,1.7,12.7,5.2c0.9,0.9,1.7,2,2.4,3.1
		c0.7-1.1,1.6-2.1,2.6-3.1c3.5-3.5,7.7-5.2,12.7-5.2c5,0,9.2,1.7,12.7,5.2c3.3,3.4,5,7.4,5.2,12.1v46.8h-5.6v-46.8h0.1
		c-0.1-3.2-1.4-5.9-3.6-8.2c-2.5-2.4-5.4-3.6-8.8-3.6c-3.4,0-6.4,1.2-8.8,3.6c-2.4,2.4-3.7,5.4-3.7,9.1v45.9h-5.5v-46.8h0.1
		c-0.2-3.2-1.4-5.9-3.7-8.2c-2.5-2.4-5.4-3.6-8.8-3.6c-3.4,0-6.3,1.2-8.7,3.6c-2.1,2.1-3.4,4.7-3.6,7.7v47.3h-5.6V175.3z"/>
	<path class="st3" d="M1323.4,236.7c-7.6,0-13.6-2.2-18.1-6.7s-6.8-10.1-6.9-17v-37.8h5.6v37.4c0,5.1,1.9,9.5,5.6,13.1
		c3.7,3.7,8.3,5.5,13.8,5.5c5.1,0,9.5-1.8,13.2-5.5c3.7-3.7,5.6-8,5.6-13.2v-37.4h5.6V213c-0.1,6.8-2.4,12.5-6.9,17
		S1330.5,236.7,1323.4,236.7z"/>
	<path class="st3" d="M1369.9,188.8v47.1h-5.6v-60.6h5.6v3.9c5-5,10.9-7.5,17.6-7.5c7.2,0,13,2.2,17.5,6.7
		c4.5,4.5,6.8,10.1,6.9,16.9v40.6h-5.5v-40c0-5.2-1.9-9.6-5.6-13.2c-3.7-3.6-8.1-5.4-13.3-5.4c-5.1,0-9.5,1.8-13.2,5.4
		C1372.2,184.6,1370.8,186.7,1369.9,188.8z"/>
	<path class="st3" d="M1437.3,155.4c1.1,1.1,1.6,2.4,1.6,3.8c0,1.6-0.5,2.9-1.6,4c-1.1,1.1-2.4,1.6-3.9,1.6c-1.5,0-2.9-0.5-3.9-1.6
		c-1.1-1.1-1.6-2.4-1.6-4c0-1.5,0.5-2.8,1.6-3.8c1.1-1.1,2.4-1.6,3.9-1.6C1434.9,153.8,1436.2,154.4,1437.3,155.4z M1436.1,175.3
		v60.6h-5.5v-60.6H1436.1z"/>
	<path class="st3" d="M1462.6,175.3v-25.8h5.5v25.8h12.4v5.6h-12.4v55h-5.5v-55h-12.4v-5.6H1462.6z"/>
	<path class="st3" d="M1558.4,235.9h-5.6v-12.4c-1.1,1.4-2.2,2.8-3.5,4.1c-6.6,6.7-14.6,10-24,10c-9.3,0-17.3-3.3-23.9-9.9
		c-6.6-6.6-10-14.6-10-23.9c0-9.4,3.3-17.4,10-24c6.6-6.6,14.6-9.9,23.9-9.9c9.4,0,17.4,3.3,24,9.9c1.3,1.3,2.4,2.7,3.5,4.1v-8.6
		h5.6V235.9z M1552.8,209.2v-11c-1-5.4-3.6-10.2-7.7-14.3c-5.5-5.5-12.1-8.2-19.8-8.2c-7.7,0-14.3,2.7-19.8,8.2
		c-5.5,5.5-8.2,12.1-8.2,19.8c0,7.7,2.7,14.3,8.2,19.8s12.1,8.2,19.8,8.2c7.7,0,14.3-2.7,19.8-8.2
		C1549.2,219.3,1551.8,214.6,1552.8,209.2z M1538.5,150.9l-15.2,11.5h-5.2l10.1-11.5H1538.5z"/>
	<path class="st3" d="M1596.6,180.1c-4,0.6-7.8,3.1-11.7,7.5c-3.8,4.4-5.7,8.9-5.7,13.4v34.8h-5.6v-60.6h5.6v13.1
		c2.3-6.1,7.1-10.6,14.3-13.6L1596.6,180.1z"/>
	<path class="st3" d="M1615.1,155.4c1.1,1.1,1.6,2.4,1.6,3.8c0,1.6-0.5,2.9-1.6,4c-1.1,1.1-2.4,1.6-3.9,1.6c-1.5,0-2.9-0.5-3.9-1.6
		c-1.1-1.1-1.6-2.4-1.6-4c0-1.5,0.5-2.8,1.6-3.8c1.1-1.1,2.4-1.6,3.9-1.6C1612.7,153.8,1614,154.4,1615.1,155.4z M1614,175.3v60.6
		h-5.5v-60.6H1614z"/>
	<path class="st3" d="M1664.7,169.8c9.4,0,17.4,3.3,24,9.9c6.6,6.6,9.9,14.6,9.9,24c0,9.3-3.3,17.3-9.9,23.9
		c-6.6,6.6-14.6,9.9-24,9.9c-9.3,0-17.3-3.3-23.9-9.9c-6.6-6.6-10-14.6-10-23.9c0-9.4,3.3-17.4,10-24
		C1647.5,173.1,1655.4,169.8,1664.7,169.8z M1644.9,183.9c-5.5,5.5-8.2,12.1-8.2,19.8c0,7.7,2.7,14.3,8.2,19.8s12.1,8.2,19.8,8.2
		c7.7,0,14.3-2.7,19.8-8.2c5.5-5.4,8.2-12,8.2-19.8c0-7.7-2.7-14.3-8.2-19.8c-5.5-5.5-12.1-8.2-19.8-8.2
		C1657,175.7,1650.4,178.4,1644.9,183.9z"/>
</g>
<g>
	<rect x="588.1" y="281.4" class="st33" width="1127.6" height="500.4"/>
	<path class="st3" d="M631.4,281.4l66.5,93.2v-93.2h14.7v116.6h-16.2l-64.8-90.9v90.9h-14.7V281.4H631.4z"/>
	<path class="st3" d="M774.2,317.9c11.8,0,21.8,4.1,29.8,12.2c8.1,8.1,12.1,17.8,12.1,28.9c0,11.1-4,20.7-12.1,28.8
		c-8.1,8.1-18,12.2-29.8,12.2c-11.7,0-21.7-4.1-29.8-12.2c-8.1-8.1-12.2-17.7-12.2-28.8c0-11.2,4.1-20.8,12.2-28.9
		C752.5,322,762.4,317.9,774.2,317.9z M755.2,339c-5.3,5.4-8,12.1-8,20c0,7.9,2.7,14.5,8,19.9s11.7,8,19,8c7.2,0,13.5-2.7,18.9-8
		s8.1-12,8.1-19.9c0-7.9-2.7-14.6-8.1-20c-5.4-5.4-11.7-8.1-18.9-8.1C766.9,330.9,760.6,333.6,755.2,339z"/>
	<path class="st3" d="M854,361.1c-5.5-3-9.3-5.6-11.3-7.6c-4-4-6-8.6-6-13.8c0-5.1,1.9-9.7,5.8-13.6c3.9-3.9,8.8-5.9,14.6-5.9
		s10.5,1.8,14.1,5.4c3.7,3.7,5.5,7.7,5.5,12.1v2.3l-13.1,5.3c-0.8-6.1-1.7-9.7-2.8-10.8c-1.1-1.1-2.3-1.6-3.7-1.6
		c-1.4,0-2.7,0.6-4,1.9c-1.2,1.2-1.9,2.9-1.9,4.9c0,2.1,0.7,3.8,2.1,5.2c0.9,1,3.1,2.5,6.4,4.6c6.1,3.4,10.6,6.4,13.4,9.2
		c4.4,4.5,6.6,9.9,6.6,16c0,6.3-2.3,11.8-6.9,16.5c-4.6,4.6-10.3,7-17.3,7c-6.9,0-12.7-2.3-17.3-7c-4.6-4.6-6.9-10.5-6.9-17.4
		l14.6-3.6c0,6.3,1,10.4,3,12.4c2,2,4.2,3,6.6,3s4.7-1,6.7-3c2-2,3-4.6,3-7.8c0-3.1-1.1-5.7-3.2-7.8
		C860.8,365.7,858.1,363.8,854,361.1z"/>
	<path class="st3" d="M917.9,361.1c-5.5-3-9.3-5.6-11.3-7.6c-4-4-6-8.6-6-13.8c0-5.1,1.9-9.7,5.8-13.6c3.9-3.9,8.8-5.9,14.6-5.9
		s10.5,1.8,14.1,5.4c3.7,3.7,5.5,7.7,5.5,12.1v2.3l-13.1,5.3c-0.8-6.1-1.7-9.7-2.8-10.8c-1.1-1.1-2.3-1.6-3.7-1.6
		c-1.4,0-2.7,0.6-4,1.9c-1.2,1.2-1.9,2.9-1.9,4.9c0,2.1,0.7,3.8,2.1,5.2c0.9,1,3.1,2.5,6.4,4.6c6.1,3.4,10.6,6.4,13.4,9.2
		c4.4,4.5,6.6,9.9,6.6,16c0,6.3-2.3,11.8-6.9,16.5c-4.6,4.6-10.3,7-17.3,7c-6.9,0-12.7-2.3-17.3-7c-4.6-4.6-6.9-10.5-6.9-17.4
		l14.6-3.6c0,6.3,1,10.4,3,12.4c2,2,4.2,3,6.6,3s4.7-1,6.7-3c2-2,3-4.6,3-7.8c0-3.1-1.1-5.7-3.2-7.8
		C924.7,365.7,922,363.8,917.9,361.1z"/>
	<path class="st3" d="M1043.8,398.1h-14.7v-13c-5.8,9.9-14.6,14.9-26.4,14.9c-11.7,0-21.7-4.1-29.8-12.2
		c-8.1-8.1-12.2-17.7-12.2-28.8c0-11.2,4.1-20.8,12.2-28.9c8.1-8.1,18.1-12.2,29.8-12.2c11.8,0,20.6,4.9,26.4,14.8V324h14.7V398.1z
		 M1029.1,364.8V353c-1-5.3-3.5-10-7.4-13.9c-5.5-5.5-11.8-8.3-19-8.3c-7.3,0-13.6,2.7-19,8.1c-5.3,5.4-8,12.1-8,20
		c0,7.9,2.7,14.5,8,19.9s11.7,8,19,8c7.2,0,13.6-2.7,19-8.2C1025.6,374.8,1028.1,370.2,1029.1,364.8z"/>
	<path class="st3" d="M1143.6,336.7c-8.4-2.8-15.1-6.7-20.2-11.8c-5.1-5.1-7.6-11.2-7.6-18.4c0-7,2.6-13.2,7.9-18.5
		c5.3-5.3,11.8-8,19.7-8c7.7,0,14.3,2.7,19.9,8.2c2.9,2.8,5.1,6.8,6.7,11.8l-13.1,5.1c-1.6-4.4-3.1-7.2-4.4-8.5
		c-2.6-2.7-5.7-4.1-9.1-4.1c-3.4,0-6.3,1.3-9,3.9c-2.6,2.6-3.9,6-3.9,10c0,4,1.3,7.4,4.1,10.2c2.8,2.7,6.6,5.2,11.5,7.5
		c9.3,3,17.1,7.7,23.3,13.9c7.2,7.1,10.8,15.6,10.8,25.3s-3.6,18.1-10.7,25.2c-7.1,7.1-15.8,10.7-26.1,10.7
		c-10.4,0-19.2-3.6-26.3-10.9c-5.6-5.6-9.1-12.8-10.4-21.6l14.1-5.1c0.9,8.5,3.3,14.7,7.2,18.6c4.3,4.3,9.5,6.5,15.4,6.5
		c6,0,11.2-2.2,15.7-6.7c4.5-4.5,6.7-10,6.7-16.6c0-6.6-2.2-12.1-6.6-16.5C1154.7,342.6,1149.5,339.2,1143.6,336.7z"/>
	<path class="st3" d="M1208.8,358.8v0.2c0,7.9,2.7,14.5,8,19.9s11.7,8,19,8c7.2,0,13.6-2.7,19-8.2c0.8-0.8,2.2-2.5,4.4-5.1l13.8,4.9
		c-2.1,3.5-4.4,6.5-7.1,9.2c-8.2,8.3-18.2,12.4-30.1,12.4c-11.7,0-21.7-4.1-29.8-12.2c-8.1-8.1-12.2-17.7-12.2-28.8
		c0-11.2,4.1-20.8,12.2-28.9c8.1-8.1,18.1-12.2,29.8-12.2c11.8,0,21.9,4.1,30.1,12.3c7.1,7.1,10.6,16.6,10.6,28.5H1208.8z
		 M1211.4,346h48.6c-3.5-10.1-11.5-15.1-24.2-15.1C1223,330.9,1214.9,335.9,1211.4,346z"/>
	<path class="st3" d="M1307,342.8v55.3h-14.7V324h14.7c2.5-2.7,7.6-4.1,15.4-4.1c9.3,0,16.9,2.9,22.6,8.6c5.7,5.7,8.6,12.7,8.8,21
		v48.6h-14.6v-47.9c0-5-1.7-9.2-5.1-12.5c-3.4-3.3-7.3-5-11.7-5c-4.3,0-8.1,1.6-11.4,4.7C1309.1,339.3,1307.8,341.1,1307,342.8z"/>
	<path class="st3" d="M1374.4,281.4h14.7V324c2.5-2.7,7.6-4.1,15.4-4.1c9.3,0,16.9,2.9,22.6,8.6c5.7,5.7,8.6,12.7,8.8,21v48.6h-14.6
		v-47.9c0-5-1.7-9.2-5.1-12.5c-3.4-3.3-7.3-5-11.7-5c-4.3,0-8.1,1.6-11.4,4.7c-1.9,1.9-3.2,3.7-4,5.4v55.3h-14.7V281.4z"/>
	<path class="st3" d="M1495.5,317.9c11.8,0,21.8,4.1,29.8,12.2c8.1,8.1,12.1,17.8,12.1,28.9c0,11.1-4,20.7-12.1,28.8
		c-8.1,8.1-18,12.2-29.8,12.2c-11.7,0-21.7-4.1-29.8-12.2c-8.1-8.1-12.2-17.7-12.2-28.8c0-11.2,4.1-20.8,12.2-28.9
		C1473.8,322,1483.7,317.9,1495.5,317.9z M1476.5,339c-5.3,5.4-8,12.1-8,20c0,7.9,2.7,14.5,8,19.9s11.7,8,19,8
		c7.2,0,13.5-2.7,18.9-8s8.1-12,8.1-19.9c0-7.9-2.7-14.6-8.1-20c-5.4-5.4-11.7-8.1-18.9-8.1C1488.2,330.9,1481.9,333.6,1476.5,339z"
		/>
	<path class="st3" d="M1590.2,335c-6.7,1-11.9,3.7-15.6,8c-3.7,4.3-5.5,9.7-5.5,16.2v38.9h-14.7V324h14.7v10.5
		c2.2-5.8,6.8-9.8,13.9-12.1L1590.2,335z"/>
	<path class="st3" d="M1688.5,398.1h-14.7v-13c-5.8,9.9-14.6,14.9-26.4,14.9c-11.7,0-21.7-4.1-29.8-12.2
		c-8.1-8.1-12.2-17.7-12.2-28.8c0-11.2,4.1-20.8,12.2-28.9c8.1-8.1,18.1-12.2,29.8-12.2c11.8,0,20.6,4.9,26.4,14.8V324h14.7V398.1z
		 M1673.8,364.8V353c-1-5.3-3.5-10-7.4-13.9c-5.5-5.5-11.8-8.3-19-8.3c-7.3,0-13.6,2.7-19,8.1c-5.3,5.4-8,12.1-8,20
		c0,7.9,2.7,14.5,8,19.9s11.7,8,19,8c7.2,0,13.6-2.7,19-8.2C1670.3,374.8,1672.8,370.2,1673.8,364.8z"/>
	<path class="st3" d="M852.8,442.4v116.6h-14.7v-94.8l-38.3,50.3l-38.4-50.3v94.8h-14.7V442.4h15.6l37.4,49l37.4-49H852.8z"/>
	<path class="st3" d="M884.5,519.8v0.2c0,7.9,2.7,14.5,8,19.9s11.7,8,19,8c7.2,0,13.6-2.7,19-8.2c0.8-0.8,2.2-2.5,4.4-5.1l13.8,4.9
		c-2.1,3.5-4.4,6.5-7.1,9.2c-8.2,8.3-18.2,12.4-30.1,12.4c-11.7,0-21.7-4.1-29.8-12.2c-8.1-8.1-12.2-17.7-12.2-28.8
		c0-11.2,4.1-20.8,12.2-28.9c8.1-8.1,18.1-12.2,29.8-12.2c11.8,0,21.9,4.1,30.1,12.3c7.1,7.1,10.6,16.6,10.6,28.5H884.5z M887.1,507
		h48.6c-3.5-10.1-11.5-15.1-24.2-15.1C898.8,491.9,890.7,496.9,887.1,507z"/>
	<path class="st3" d="M1049.2,559.1h-14.7v-13c-5.8,9.9-14.6,14.9-26.4,14.9c-11.7,0-21.7-4.1-29.8-12.2
		c-8.1-8.1-12.2-17.7-12.2-28.8c0-11.2,4.1-20.8,12.2-28.9c8.1-8.1,18.1-12.2,29.8-12.2c11.8,0,20.6,4.9,26.4,14.8v-51.2h14.7V559.1
		z M1034.5,525.8V514c-1-5.3-3.5-10-7.4-13.9c-5.5-5.5-11.8-8.3-19-8.3c-7.3,0-13.6,2.7-19,8.1c-5.3,5.4-8,12.1-8,20
		c0,7.9,2.7,14.5,8,19.9s11.7,8,19,8c7.2,0,13.6-2.7,19-8.2C1031,535.8,1033.5,531.2,1034.5,525.8z"/>
	<path class="st3" d="M1085.7,463.9c2,1.9,3,4.1,3,6.4c0,2.5-1,4.7-3,6.6s-4.4,2.9-7.4,2.9c-3.1,0-5.6-1-7.5-2.9s-2.9-4.1-2.9-6.6
		c0-2.4,1-4.5,2.9-6.4c1.9-1.9,4.5-2.9,7.5-2.9C1081.2,461,1083.7,462,1085.7,463.9z M1085.5,485v74.1h-14.6V485H1085.5z"/>
	<path class="st3" d="M1189.1,559.1h-14.7v-13c-5.8,9.9-14.6,14.9-26.4,14.9c-11.7,0-21.7-4.1-29.8-12.2
		c-8.1-8.1-12.2-17.7-12.2-28.8c0-11.2,4.1-20.8,12.2-28.9c8.1-8.1,18.1-12.2,29.8-12.2c11.8,0,20.6,4.9,26.4,14.8V485h14.7V559.1z
		 M1174.4,525.8V514c-1-5.3-3.5-10-7.4-13.9c-5.5-5.5-11.8-8.3-19-8.3c-7.3,0-13.6,2.7-19,8.1c-5.3,5.4-8,12.1-8,20
		c0,7.9,2.7,14.5,8,19.9s11.7,8,19,8c7.2,0,13.6-2.7,19-8.2C1170.9,535.8,1173.4,531.2,1174.4,525.8z"/>
	<path class="st3" d="M1224,503.8v55.3h-14.7V485h14.7c2.5-2.7,7.6-4.1,15.4-4.1c9.3,0,16.9,2.9,22.6,8.6c5.7,5.7,8.6,12.7,8.8,21
		v48.6h-14.6v-47.9c0-5-1.7-9.2-5.1-12.5c-3.4-3.3-7.3-5-11.7-5c-4.3,0-8.1,1.6-11.4,4.7C1226.1,500.3,1224.7,502.1,1224,503.8z"/>
	<path class="st3" d="M1303,519.8v0.2c0,7.9,2.7,14.5,8,19.9s11.7,8,19,8c7.2,0,13.6-2.7,19-8.2c0.8-0.8,2.2-2.5,4.4-5.1l13.8,4.9
		c-2.1,3.5-4.4,6.5-7.1,9.2c-8.2,8.3-18.2,12.4-30.1,12.4c-11.7,0-21.7-4.1-29.8-12.2c-8.1-8.1-12.2-17.7-12.2-28.8
		c0-11.2,4.1-20.8,12.2-28.9c8.1-8.1,18.1-12.2,29.8-12.2c11.8,0,21.9,4.1,30.1,12.3c7.1,7.1,10.6,16.6,10.6,28.5H1303z M1305.6,507
		h48.6c-3.5-10.1-11.5-15.1-24.2-15.1C1317.3,491.9,1309.1,496.9,1305.6,507z"/>
	<path class="st3" d="M1402.8,463.9c2,1.9,3,4.1,3,6.4c0,2.5-1,4.7-3,6.6s-4.4,2.9-7.4,2.9c-3.1,0-5.6-1-7.5-2.9s-2.9-4.1-2.9-6.6
		c0-2.4,1-4.5,2.9-6.4c1.9-1.9,4.5-2.9,7.5-2.9C1398.4,461,1400.8,462,1402.8,463.9z M1402.6,485v74.1H1388V485H1402.6z"/>
	<path class="st3" d="M1459.1,496c-6.7,1-11.9,3.7-15.6,8c-3.7,4.3-5.5,9.7-5.5,16.2v38.9h-14.7V485h14.7v10.5
		c2.2-5.8,6.8-9.8,13.9-12.1L1459.1,496z"/>
	<path class="st3" d="M1557.4,559.1h-14.7v-13c-5.8,9.9-14.6,14.9-26.4,14.9c-11.7,0-21.7-4.1-29.8-12.2
		c-8.1-8.1-12.2-17.7-12.2-28.8c0-11.2,4.1-20.8,12.2-28.9c8.1-8.1,18.1-12.2,29.8-12.2c11.8,0,20.6,4.9,26.4,14.8V485h14.7V559.1z
		 M1542.7,525.8V514c-1-5.3-3.5-10-7.4-13.9c-5.5-5.5-11.8-8.3-19-8.3c-7.3,0-13.6,2.7-19,8.1c-5.3,5.4-8,12.1-8,20
		c0,7.9,2.7,14.5,8,19.9s11.7,8,19,8c7.2,0,13.6-2.7,19-8.2C1539.3,535.8,1541.7,531.2,1542.7,525.8z"/>
</g>
</svg>
