<?xml version="1.0" encoding="utf-8"?>
<!-- Generator: Adobe Illustrator 22.0.0, SVG Export Plug-In . SVG Version: 6.00 Build 0)  -->
<svg version="1.1" id="Camada_1" xmlns="http://www.w3.org/2000/svg" xmlns:xlink="http://www.w3.org/1999/xlink" x="0px" y="0px"
	 viewBox="0 0 1603.6 653.9" style="enable-background:new 0 0 1603.6 653.9;" xml:space="preserve">
<style type="text/css">
	.st0{fill:#FFFFFF;stroke:#F4E71F;stroke-width:13;stroke-miterlimit:10;}
	.st1{fill:#F4E71F;stroke:#F4E71F;stroke-width:13;stroke-miterlimit:10;}
	.st2{fill:#FFFFFF;stroke:#004586;stroke-width:10;stroke-miterlimit:10;}
	.st3{fill:#004586;}
	.st4{fill:#F9C68D;}
	.st5{fill:#EFA962;}
	.st6{fill:#965C23;}
	.st7{fill:#AD5C14;}
	.st8{fill:#DD9B5F;}
	.st9{fill:#D19861;}
	.st10{fill:#CE7D34;}
	.st11{fill:#F2CFAD;}
	.st12{fill:#E0B794;}
	.st13{fill:#DDA46B;}
	.st14{fill:#BF7C40;}
	.st15{fill:#AF672C;}
	.st16{fill:#311A0F;}
	.st17{fill:#3A251D;}
	.st18{fill:#EC6411;}
	.st19{fill:#C95311;}
	.st20{fill:#2A100B;}
	.st21{fill:#3A1E1B;}
	.st22{fill:#1C1305;}
	.st23{fill:#EFB001;}
	.st24{fill:#E7B05C;}
	.st25{fill:#EAAF75;}
	.st26{fill:#CE915B;}
	.st27{fill:#19110A;}
	.st28{fill:#FAB72F;}
	.st29{fill:#E8B05D;}
	.st30{fill:#A25B16;}
	.st31{fill:#1E1A18;}
	.st32{fill:#FFFFFF;}
	.st33{fill:none;}
	.st34{font-family:'Champagne&Limousines';}
	.st35{font-size:143px;}
	.st36{font-family:'Champagne&Limousines-Bold';}
	.st37{font-size:166px;}
</style>
<ellipse class="st0" cx="248.9" cy="217.8" rx="218.5" ry="203"/>
<path class="st1" d="M444.3,217.8c0,100.2-87.5,181.5-195.4,181.5S53.6,318,53.6,217.8S141.1,39.3,248.9,39.3
	S444.3,117.5,444.3,217.8z"/>
<g>
	<path class="st2" d="M294.6,561.7l186.8-33.5c0,0-69.6-111.2-88-150.3c-13.7-29.1-24.4-88.4-24.4-88.4l-1.1-10.8
		c-4.1-54.4-16.2-91.5-40.1-121.5c-19.4-24.3-46.4-33.3-71.6-33.3c-29,0-60.5,10.2-81.4,41.7c-19.5,29.3-30.9,71.6-35,120.1
		c-0.1,1.2,0.5,3.9-0.7,3.9H139c0,0-4.3,31.8-11.7,59.4C117.2,386.7,20.4,530.6,20.4,530.6l199.5,32.7c11.3,6.8,23.5,10.5,36.3,10.5
		C269.9,573.8,282.8,569.5,294.6,561.7z"/>
	<path class="st3" d="M290.8,554.1l170.6-33.4c0,0-62.5-105.5-79.5-143.1c-12.7-28-22.5-84.9-22.5-84.9l-1-10.3
		c-3.8-52.3-14.9-87.8-37-116.7c-17.9-23.3-42.8-32-66-32c-26.7,0-55.7,9.8-75,40c-18,28.2-28.5,68.8-32.3,115.3
		c-0.1,1.1,0.4,3.8-0.7,3.8h-0.1c0,0-4,30.5-10.8,57c-9.3,36.4-95.2,173-95.2,173l180.5,32.9c10.4,6.5,21.7,10.1,33.5,10.1
		C268.1,565.8,280,561.7,290.8,554.1z"/>
</g>
<g>
	<g>
		<path class="st4" d="M197,484.4c0,22.5-37.7,40.7-37.7,40.7s-37.7-18.2-37.7-40.7s16.9-40.7,37.7-40.7S197,461.9,197,484.4z"/>
		<path class="st5" d="M197.2,484.4c-0.1,4.9-1.7,9.6-4.2,13.9c-1.2,2.1-2.6,4.1-4.1,6.1c-1.5,1.9-3.2,3.8-4.9,5.5
			c-3.5,3.5-7.3,6.6-11.3,9.4c-2,1.4-4.1,2.7-6.2,3.9c-2.1,1.2-4.2,2.4-6.5,3.5l-0.8,0.4l-0.7-0.4c-6.8-3.6-13-8.1-18.9-13
			c-5.8-4.9-11.3-10.3-15.2-17c-0.4-0.9-1-1.7-1.3-2.6l-0.6-1.3l-0.5-1.4l-0.3-0.7l-0.2-0.7l-0.4-1.4c-0.2-1-0.4-1.9-0.5-2.9
			c0-0.5-0.1-1-0.1-1.5l0-1.4c0-1,0-1.9,0.1-2.9c0.2-1.9,0.3-3.9,0.8-5.8l0.3-1.4c0.1-0.5,0.2-1,0.3-1.4l0.8-2.8
			c0.3-0.9,0.7-1.8,1.1-2.7l0.6-1.4c0.2-0.4,0.4-0.9,0.7-1.3c1.7-3.5,4.1-6.7,6.8-9.6c2.7-2.9,5.9-5.3,9.4-7.3
			c3.5-2,7.3-3.3,11.2-4.1c3.9-0.8,8-0.8,12-0.2c1,0.2,2,0.3,3,0.5l2.9,0.8l0.7,0.2c0.2,0.1,0.5,0.2,0.7,0.3l1.4,0.6l1.4,0.6
			c0.5,0.2,0.9,0.5,1.3,0.7c3.6,1.8,6.7,4.3,9.4,7.1c2.7,2.8,4.9,6.1,6.7,9.5C195.6,469.2,197.1,476.8,197.2,484.4z M196.8,484.4
			c-0.2-3.7-0.5-7.5-1.7-11.1c-1.1-3.6-2.6-7-4.7-10c-2.1-3.1-4.4-5.9-7.2-8.2c-2.8-2.3-5.7-4.4-9-5.8c-6.4-3.1-13.8-4-20.7-2.8
			c-3.5,0.7-6.9,1.7-10,3.4c-3.1,1.7-6.1,3.7-8.6,6.3c-0.7,0.6-1.3,1.3-1.8,2c-0.6,0.7-1.2,1.3-1.7,2.1l-1.6,2.2
			c-0.5,0.8-0.9,1.5-1.4,2.3c-1.8,3.1-3.3,6.5-4.2,10c-0.6,1.7-0.8,3.6-1.1,5.4c-0.1,0.9-0.2,1.8-0.2,2.7l-0.1,1.4
			c0,0.5,0,0.9,0,1.3c0,3.6,1.3,7.2,3,10.4c1.8,3.2,4.1,6.2,6.7,8.9c0.7,0.7,1.3,1.3,2,2c0.7,0.6,1.4,1.3,2.1,1.9
			c1.4,1.2,2.9,2.4,4.4,3.5c3,2.2,6.2,4.2,9.4,6c3.2,1.8,6.6,3.6,9.9,5.2h-1.6c1-0.5,2.1-1.1,3.1-1.7c1-0.6,2.1-1.2,3.1-1.8
			c2-1.2,4.1-2.5,6.1-3.8c4-2.6,7.9-5.3,11.6-8.3c3.7-3,7.1-6.3,9.9-10.2C194.9,493.8,196.8,489.2,196.8,484.4z"/>
	</g>
	<g>
		<path class="st6" d="M295.9,484c0,22.2-38.2,40.2-38.2,40.2s-38.2-18-38.2-40.2c0-22.2,17.1-40.2,38.2-40.2S295.9,461.8,295.9,484
			z"/>
		<path class="st7" d="M296.2,484c0,4.9-1.8,9.6-4.2,13.9c-1.2,2.1-2.7,4.1-4.2,6.1c-1.5,1.9-3.2,3.8-4.9,5.5
			c-3.5,3.5-7.3,6.7-11.4,9.4c-2,1.4-4.1,2.7-6.2,3.9c-2.1,1.2-4.3,2.3-6.6,3.4l-1,0.4l-0.9-0.4c-1.8-0.9-3.4-1.8-5-2.9
			c-1.6-1-3.2-2-4.8-3.1c-3.2-2.2-6.2-4.5-9.1-6.9c-1.4-1.2-2.9-2.5-4.3-3.8c-1.4-1.3-2.7-2.6-4.1-4c-2.6-2.8-5.1-5.7-7.1-9
			c-1-1.7-1.9-3.4-2.5-5.2c-0.4-0.9-0.6-1.9-0.9-2.8l-0.3-1.5c0-0.2-0.1-0.5-0.1-0.7l-0.1-0.7c0-0.5-0.1-1-0.1-1.5l0-1.5
			c0-1,0-1.9,0-2.9c0.2-1.9,0.3-3.9,0.8-5.8l0.3-1.4l0.1-0.7l0.2-0.7l0.9-2.8c0.3-0.9,0.7-1.8,1.1-2.8l0.6-1.4l0.7-1.3
			c1.8-3.5,4.2-6.8,7-9.6c2.7-2.9,6-5.3,9.6-7.2c0.9-0.4,1.8-1,2.7-1.4l2.8-1.1c0.9-0.4,1.9-0.6,2.9-0.9l1.5-0.4l1.5-0.3
			c8-1.5,16.4-0.2,23.6,3.5c7.2,3.7,12.9,9.8,16.4,16.7c0.4,0.9,0.9,1.7,1.3,2.6l1,2.7c0.4,0.9,0.6,1.8,0.9,2.7l0.4,1.4
			c0.2,0.5,0.2,0.9,0.3,1.4l0.6,2.8c0.2,0.9,0.2,1.9,0.4,2.8l0.2,1.4c0,0.5,0,0.9,0.1,1.4L296.2,484z M295.7,484l-0.2-2.8
			c0-0.5,0-0.9-0.1-1.4l-0.2-1.4c-0.2-0.9-0.3-1.9-0.5-2.8l-0.8-2.7c-0.2-0.9-0.6-1.8-1-2.6c-0.4-0.9-0.7-1.7-1.1-2.5
			c-0.4-0.8-0.9-1.6-1.3-2.4c-0.5-0.8-1-1.5-1.5-2.3c-0.5-0.8-1.1-1.5-1.7-2.2l-0.9-1.1l-0.4-0.5l-0.5-0.5l-1.9-1.9
			c-0.7-0.6-1.4-1.2-2.1-1.7c-0.7-0.6-1.4-1.1-2.1-1.6c-0.7-0.5-1.4-1.1-2.2-1.5c-0.8-0.4-1.5-0.9-2.3-1.3l-2.4-1.1
			c-3.2-1.4-6.6-2.5-10.1-2.8c-3.5-0.4-7-0.4-10.4,0.2l-1.3,0.2l-1.3,0.3c-0.8,0.2-1.7,0.4-2.5,0.7l-2.5,0.9
			c-0.8,0.3-1.6,0.7-2.4,1.1c-3.1,1.6-6.1,3.6-8.6,6.1c-2.5,2.5-4.9,5.2-6.6,8.3l-0.7,1.1l-0.6,1.2c-0.4,0.8-0.8,1.6-1.2,2.4l-1,2.5
			l-0.3,0.6l-0.2,0.6l-0.4,1.3c-0.6,1.7-0.8,3.5-1.2,5.3c-0.1,0.9-0.2,1.8-0.3,2.7l-0.1,1.4c0,0.4,0,0.9,0,1.3c0,3.6,1.3,7.1,3,10.3
			c1.8,3.2,4.1,6.1,6.8,8.8c1.3,1.3,2.7,2.6,4.2,3.7c1.4,1.2,2.9,2.3,4.5,3.4c3.1,2.1,6.3,4.1,9.5,5.8c1.6,0.9,3.3,1.8,4.9,2.6
			c1.7,0.8,3.4,1.6,5,2.4h-1.8c4.1-2.2,8.3-4.6,12.3-7.1c2-1.2,4-2.5,6-3.9c2-1.3,3.9-2.7,5.8-4.2c3.7-2.9,7.3-6.1,10.1-10
			C293.7,493.4,295.7,488.8,295.7,484z"/>
	</g>
	<g>
		<path class="st4" d="M394.9,500.7c0,19.9-39.8,36.1-39.8,36.1s-39.8-16.1-39.8-36.1c0-19.9,17.8-36.1,39.8-36.1
			S394.9,480.8,394.9,500.7z"/>
		<path class="st8" d="M395.1,500.7c0,2.4-0.6,4.7-1.5,6.9c-0.9,2.2-2.1,4.2-3.5,6.2c-2.8,3.8-6.2,7.2-9.9,10.3
			c-3.7,3.1-7.6,5.7-11.7,8.1c-2.1,1.2-4.2,2.3-6.3,3.3c-2.1,1-4.3,2-6.5,2.9l-0.7,0.3l-0.6-0.3c-1.7-0.8-3.4-1.6-5-2.4
			c-1.6-0.8-3.3-1.8-4.9-2.7c-3.2-1.9-6.3-3.9-9.3-6c-1.5-1.1-3-2.1-4.5-3.3c-0.7-0.6-1.5-1.1-2.2-1.7c-0.7-0.6-1.4-1.2-2.1-1.8
			c-1.4-1.2-2.7-2.5-4-3.8c-1.3-1.4-2.5-2.7-3.6-4.3c-0.6-0.7-1.1-1.5-1.6-2.3c-0.2-0.4-0.5-0.8-0.7-1.2l-0.3-0.6l-0.3-0.7
			c-0.8-1.7-1.4-3.6-1.6-5.5l-0.1-1.5l0-1.4c0-0.9,0-1.9,0.1-2.8l0.4-2.8c0.1-0.9,0.4-1.9,0.6-2.8c1.8-7.4,6.5-14.1,12.4-18.9
			c3-2.4,6.3-4.5,9.8-5.9c0.4-0.2,0.9-0.4,1.3-0.6l1.4-0.5c0.9-0.3,1.8-0.7,2.7-0.9c1.9-0.5,3.7-1,5.6-1.2
			c7.6-1.2,15.5-0.1,22.6,2.7c3.5,1.5,6.9,3.4,9.8,5.8c2.9,2.5,5.5,5.2,7.6,8.4c2.1,3.2,3.7,6.5,4.8,10.1
			C394.5,493.4,395.1,497.1,395.1,500.7z M394.7,500.7c-0.1-3.6-0.7-7.2-2-10.6c-1.3-3.4-3.3-6.4-5.5-9.2c-2.3-2.7-5.1-5-8-6.9
			c-2.9-1.9-6.1-3.4-9.4-4.6c-3.3-1-6.7-1.9-10.2-2.2c-3.5-0.3-6.9-0.3-10.4,0.2c-1.7,0.2-3.4,0.6-5.1,1c-0.8,0.2-1.7,0.5-2.5,0.8
			l-1.2,0.4c-0.4,0.2-0.8,0.3-1.2,0.5c-3.2,1.2-6.2,3-9,5.1l-2,1.6l-1.9,1.8c-0.7,0.6-1.2,1.3-1.8,1.9c-0.6,0.7-1.2,1.3-1.6,2
			c-2.1,2.7-3.7,5.9-4.9,9.2c-0.3,0.8-0.6,1.7-0.8,2.5l-0.5,2.6c-0.1,0.4-0.1,0.9-0.2,1.3l-0.1,1.3l-0.1,1.3l0,1.3
			c0.2,3.4,1.6,6.8,3.6,9.7c2,2.9,4.6,5.6,7.4,7.9c1.4,1.2,2.8,2.3,4.3,3.3c1.5,1,3,2,4.6,2.9c3.1,1.9,6.3,3.5,9.6,5
			c1.6,0.8,3.3,1.5,4.9,2.2c1.7,0.7,3.3,1.4,5,2.1h-1.3c1-0.4,2.1-1,3.1-1.4c1-0.5,2.1-1,3.1-1.5c2.1-1,4.1-2.1,6.2-3.2
			c4.1-2.2,8.1-4.4,11.9-7c1.9-1.3,3.8-2.6,5.6-4.1c1.8-1.5,3.5-3,5-4.8c1.5-1.7,2.8-3.7,3.8-5.8
			C394.1,505.4,394.7,503.1,394.7,500.7z"/>
	</g>
	<g>
		<path class="st9" d="M108,541.5c4.3,20.1-34.3,45.6-34.3,45.6s-45.7-7.2-50.1-27.4s11-40.5,34.3-45.6
			C81.2,509.1,103.6,521.4,108,541.5z"/>
		<path class="st10" d="M108.2,541.5c0.5,2.5,0.4,5-0.1,7.5c-0.5,2.5-1.4,4.8-2.5,7.1c-1.1,2.3-2.4,4.5-3.8,6.6
			c-1.4,2.1-2.9,4.1-4.5,6.1c-3.2,3.9-6.8,7.5-10.6,10.8c-1.9,1.7-3.9,3.2-5.9,4.7c-2,1.5-4,3-6.2,4.3L74,589l-0.6-0.1
			c-2-0.4-3.9-0.8-5.8-1.3c-1.9-0.5-3.8-1-5.7-1.6c-3.8-1.1-7.5-2.4-11.1-3.8c-1.8-0.7-3.6-1.5-5.4-2.2c-1.8-0.8-3.6-1.6-5.3-2.5
			c-3.5-1.8-6.9-3.8-9.9-6.4c-1.5-1.2-2.9-2.7-4.2-4.3c-1.3-1.5-2.3-3.4-3-5.3l-0.5-1.5l-0.3-1.5c-0.1-0.5-0.2-1-0.3-1.5
			c-0.1-0.5-0.2-1-0.2-1.5c-0.3-2-0.3-4-0.1-6c0.1-2,0.4-4,0.9-6c0.5-2,1.1-3.9,1.9-5.8c1.6-3.7,3.8-7.2,6.5-10.3
			c5.3-6.2,12.3-10.8,19.9-13.6c3.8-1.3,7.8-2.3,11.8-2.7c4-0.4,8.1-0.4,12.1,0.3c4,0.6,7.9,1.8,11.6,3.5c1.8,0.9,3.6,1.8,5.3,2.9
			c1.7,1.1,3.3,2.3,4.8,3.6C102.4,526.8,106.6,533.8,108.2,541.5z M107.8,541.6c-0.4-1.9-1-3.7-1.8-5.5c-0.8-1.8-1.7-3.4-2.8-5
			c-2.2-3.2-4.9-5.9-8-8.1c-1.5-1.1-3.2-2.1-4.8-2.9c-1.7-0.9-3.4-1.6-5.2-2.2c-3.5-1.3-7.2-2-10.9-2.4c-7.4-0.8-14.9,0.2-21.9,2.6
			c-7,2.5-13.4,6.5-18.4,12c-5,5.5-8.5,12.3-9.5,19.7c-0.2,1.8-0.4,3.7-0.3,5.6c0,0.5,0.1,0.9,0.1,1.4c0,0.5,0.1,0.9,0.2,1.4
			l0.2,1.4l0.3,1.3c1,3.5,3.3,6.6,6.2,9.1c2.8,2.5,6.2,4.5,9.6,6.2c3.4,1.7,7.1,3.1,10.7,4.2c3.7,1.2,7.4,2.1,11.2,2.9
			c1.9,0.4,3.8,0.8,5.7,1.1c1.9,0.3,3.8,0.7,5.6,0.9l-1.3,0.3c1-0.7,2-1.4,3-2.1c1-0.7,2-1.5,3-2.2c1.9-1.5,3.9-3,5.8-4.6
			c3.8-3.1,7.6-6.3,11.1-9.7c1.8-1.7,3.4-3.5,5-5.4c0.8-0.9,1.5-1.9,2.3-2.9c0.7-1,1.4-2,2-3.1c1.3-2.1,2.2-4.4,2.9-6.8
			C108.2,546.5,108.3,544,107.8,541.6z"/>
	</g>
	<g>
		<path class="st11" d="M201.8,572.3c2.4,22.3-36.1,44.8-36.1,44.8s-42.4-13.7-44.8-36.1s13.7-42.4,36.1-44.8
			C179.3,533.8,199.4,549.9,201.8,572.3z"/>
		<path class="st12" d="M202,572.2c0.5,5.1-1,10.1-3.2,14.7c-2.3,4.5-5.3,8.7-8.6,12.6c-3.3,3.8-7.1,7.3-11,10.5
			c-2,1.6-4,3.1-6.1,4.5c-2.1,1.4-4.2,2.8-6.5,4.1l-0.7,0.4l-0.7-0.3c-7.5-2.8-14.5-6.4-21.3-10.5c-6.7-4.2-13.2-8.8-18.3-15
			c-1.2-1.6-2.4-3.2-3.3-5c-0.5-0.9-0.9-1.8-1.3-2.8c-0.2-0.5-0.3-1-0.5-1.5l-0.2-0.7l-0.2-0.8c-0.1-0.5-0.2-1-0.3-1.5l-0.1-1.5
			c-0.1-1-0.2-2-0.2-3c0-2,0-4,0.3-6c0.1-2,0.7-4,1.1-6c0.6-1.9,1.2-3.9,2.1-5.7c0.8-1.9,1.8-3.6,2.8-5.4c1.2-1.7,2.3-3.4,3.7-4.9
			c1.3-1.6,2.8-3,4.3-4.4c1.6-1.3,3.2-2.6,5-3.7c1.7-1.2,3.6-2,5.4-3c0.9-0.4,1.9-0.8,2.9-1.1c0.5-0.2,1-0.4,1.5-0.5l1.5-0.4
			c7.9-2.3,16.6-2,24.3,0.6l2.9,1.1c0.9,0.4,1.8,0.9,2.8,1.4c0.5,0.2,0.9,0.5,1.4,0.7l1.3,0.8l1.3,0.8c0.4,0.3,0.9,0.6,1.2,0.9
			l2.4,1.9c0.8,0.7,1.5,1.4,2.2,2.1c0.4,0.4,0.7,0.7,1.1,1.1l1,1.2l1,1.2c0.3,0.4,0.6,0.8,0.9,1.2c2.4,3.2,4.2,6.8,5.7,10.5l1,2.8
			c0.2,0.5,0.3,0.9,0.4,1.4l0.4,1.4l0.4,1.4c0.1,0.5,0.2,1,0.2,1.5L202,572.2z M201.6,572.3c-0.6-3.8-1.5-7.7-3.1-11.2
			c-0.4-0.9-0.9-1.7-1.3-2.6l-0.7-1.3c-0.3-0.4-0.5-0.8-0.8-1.2c-0.6-0.8-1.1-1.6-1.7-2.3l-1.9-2.2c-0.3-0.4-0.6-0.7-1-1l-1-1l-1-1
			c-0.4-0.3-0.7-0.6-1.1-0.9c-0.8-0.6-1.5-1.2-2.2-1.7l-2.4-1.5c-0.4-0.3-0.8-0.5-1.2-0.7l-1.2-0.7l-1.2-0.7
			c-0.4-0.2-0.9-0.4-1.3-0.6l-1.3-0.5c-0.4-0.2-0.8-0.4-1.3-0.5l-2.7-0.9c-7.1-2.1-14.8-2.2-21.9-0.2l-1.3,0.4
			c-0.4,0.1-0.9,0.3-1.3,0.5c-0.9,0.3-1.7,0.6-2.6,1c-1.7,0.8-3.4,1.5-4.9,2.6c-1.6,0.9-3.1,2.1-4.6,3.2c-1.4,1.3-2.8,2.4-4,3.9
			c-1.3,1.3-2.4,2.9-3.5,4.4c-1,1.6-2,3.1-2.8,4.9c-0.9,1.6-1.5,3.4-2.2,5.2c-0.5,1.8-1.1,3.6-1.4,5.5c-0.4,1.9-0.5,3.7-0.7,5.6
			c0,0.9,0,1.9,0,2.9l0,1.4c0,0.5,0.1,0.9,0.2,1.4c0.5,3.7,2.3,7.2,4.6,10.2c2.4,3,5.2,5.7,8.3,8.1c1.5,1.2,3.1,2.3,4.8,3.3
			c1.6,1,3.3,2,5,2.9c3.4,1.8,7,3.4,10.6,4.8c3.6,1.4,7.3,2.7,10.9,3.9l-1.4,0.2c1-0.6,2.1-1.3,3.1-2c1-0.7,2.1-1.4,3.1-2.1
			c2-1.4,4-2.9,6-4.4c3.9-3,7.8-6,11.4-9.4c3.6-3.4,7-7,9.5-11.3c1.3-2.1,2.3-4.4,3-6.8C201.6,577.3,201.8,574.7,201.6,572.3z"/>
	</g>
	<g>
		<path class="st4" d="M290.9,577.5c0,23.2-41.9,41.9-41.9,41.9s-41.9-18.8-41.9-41.9s18.8-41.9,41.9-41.9S290.9,554.3,290.9,577.5z
			"/>
		<path class="st13" d="M291.1,577.5c0,5.3-2.1,10.3-4.9,14.7c-2.9,4.4-6.4,8.3-10.2,11.9c-3.9,3.6-8.1,6.7-12.5,9.6
			c-2.2,1.4-4.5,2.7-6.8,4c-2.3,1.3-4.6,2.4-7.1,3.5l-0.8,0.3l-0.7-0.3c-7.4-3.6-14.2-8.1-20.7-13.1c-6.4-5-12.6-10.5-17.1-17.4
			c-1.1-1.7-2.1-3.6-2.8-5.5c-0.4-1-0.7-2-1-3c-0.1-0.5-0.2-1-0.3-1.5l-0.2-0.8l-0.1-0.8c0-0.5-0.1-1.1-0.1-1.6l0-1.5
			c0-1,0-2.1,0.1-3.1c0.2-2.1,0.4-4.1,0.9-6.2c0.4-2.1,1.1-4,1.8-6c0.9-1.9,1.6-3.9,2.8-5.7c1-1.9,2.3-3.5,3.5-5.2
			c1.4-1.6,2.7-3.2,4.3-4.6c1.5-1.5,3.2-2.7,4.9-4c1.8-1.1,3.5-2.3,5.5-3.2c1.9-1,3.9-1.7,5.9-2.5c1-0.3,2-0.6,3.1-0.8
			c0.5-0.1,1-0.3,1.5-0.4l1.6-0.2c8.4-1.5,17.2-0.2,24.8,3.4l2.8,1.4c0.9,0.5,1.8,1.1,2.7,1.7c0.4,0.3,0.9,0.6,1.3,0.9l1.2,1l1.2,1
			c0.4,0.3,0.8,0.7,1.2,1l2.2,2.2c0.7,0.8,1.3,1.6,2,2.4c0.3,0.4,0.7,0.8,1,1.2l0.9,1.3l0.9,1.3c0.3,0.4,0.6,0.9,0.8,1.3l1.5,2.7
			c0.5,0.9,0.8,1.9,1.2,2.8c0.2,0.5,0.4,0.9,0.6,1.4l0.5,1.5l0.5,1.5c0.2,0.5,0.3,1,0.4,1.5l0.7,3c0.1,0.5,0.2,1,0.2,1.5l0.2,1.5
			l0.2,1.5c0.1,0.5,0.1,1,0.1,1.5L291.1,577.5z M290.7,577.5c-0.1-4-0.7-8-1.9-11.8c-0.3-1-0.7-1.9-1.1-2.8l-0.6-1.4
			c-0.2-0.4-0.5-0.9-0.7-1.3c-0.5-0.9-0.9-1.8-1.4-2.6l-1.7-2.4c-0.3-0.4-0.6-0.8-0.9-1.2l-0.9-1.1l-0.9-1.1c-0.3-0.4-0.7-0.7-1-1
			c-0.7-0.7-1.4-1.4-2.1-2l-2.3-1.8c-0.4-0.3-0.8-0.6-1.2-0.9l-1.2-0.8l-1.2-0.8c-0.4-0.3-0.8-0.5-1.3-0.7l-1.3-0.7
			c-0.4-0.2-0.8-0.5-1.3-0.7l-2.6-1.2c-7.1-2.9-14.9-3.9-22.5-2.7l-1.4,0.2c-0.5,0.1-0.9,0.2-1.4,0.3c-0.9,0.2-1.9,0.4-2.8,0.7
			c-1.8,0.7-3.6,1.2-5.3,2.1c-1.8,0.7-3.4,1.8-5,2.8c-1.5,1.1-3.2,2.2-4.5,3.5c-1.5,1.2-2.7,2.7-4.1,4.1c-1.2,1.5-2.4,3-3.4,4.7
			c-1.1,1.6-1.9,3.4-2.8,5.1c-0.7,1.8-1.6,3.6-2,5.5c-0.6,1.9-0.9,3.8-1.3,5.7c-0.2,1-0.2,2-0.3,2.9l-0.1,1.5c0,0.5,0,1,0,1.4
			c0.1,3.8,1.6,7.6,3.6,11c2.1,3.4,4.7,6.4,7.6,9.2c1.5,1.4,3,2.7,4.5,3.9c1.6,1.2,3.2,2.4,4.9,3.5c3.3,2.2,6.8,4.2,10.3,6.1
			c3.5,1.9,7.2,3.6,10.7,5.2h-1.5c1.1-0.5,2.3-1.1,3.4-1.7c1.1-0.6,2.3-1.2,3.4-1.8c2.2-1.2,4.4-2.5,6.6-3.8
			c4.4-2.6,8.7-5.3,12.7-8.4c4.1-3.1,7.9-6.5,11-10.5c1.5-2,2.8-4.3,3.8-6.6C290.1,582.6,290.7,580,290.7,577.5z"/>
	</g>
	<g>
		<path class="st14" d="M377.1,598c-4.6,19.1-45,25.9-45,25.9s-33-24.3-28.4-43.4c4.6-19.1,24.7-30.7,45-25.9
			C368.9,559.4,381.7,578.9,377.1,598z"/>
		<path class="st15" d="M377.2,598c-0.5,2.2-1.6,4.3-2.9,6.2c-1.3,1.9-2.9,3.5-4.6,5.1c-3.4,3-7.3,5.5-11.4,7.6
			c-4.1,2.1-8.3,3.8-12.7,5.2c-2.2,0.7-4.4,1.3-6.6,1.8c-2.2,0.5-4.4,1-6.7,1.4l-0.6,0.1l-0.5-0.4c-1.4-1.1-2.8-2.3-4.1-3.5
			c-1.3-1.2-2.6-2.4-3.9-3.6c-2.6-2.5-5-5.1-7.3-7.8c-2.3-2.7-4.5-5.5-6.5-8.5c-2-2.9-3.8-6.1-5.1-9.4c-0.3-0.8-0.6-1.7-0.9-2.6
			c-0.2-0.9-0.5-1.8-0.6-2.7c-0.3-1.8-0.4-3.6-0.2-5.5l0.2-1.4l0.3-1.3c0.2-0.9,0.4-1.8,0.7-2.6l1-2.5c0.1-0.4,0.3-0.8,0.6-1.2
			l0.6-1.2l0.6-1.2c0.2-0.4,0.5-0.8,0.7-1.2c0.5-0.8,1-1.6,1.5-2.3l1.7-2.1c0.3-0.4,0.6-0.7,0.9-1l1-1l1-1l1.1-0.9
			c0.7-0.6,1.4-1.2,2.2-1.7l2.3-1.5c0.8-0.5,1.6-0.9,2.4-1.3l1.2-0.6l1.3-0.5c0.9-0.3,1.7-0.7,2.6-1l2.6-0.8
			c0.9-0.3,1.8-0.4,2.7-0.6l1.4-0.3c0.5-0.1,0.9-0.1,1.4-0.2c0.9-0.1,1.8-0.2,2.8-0.3c1.8,0,3.7-0.1,5.5,0.1
			c7.4,0.5,14.5,3.3,20.4,7.6c2.9,2.2,5.5,4.9,7.7,7.8c2.1,3,3.8,6.2,5,9.6c1.2,3.4,1.8,7,2,10.5l0,2.7l0,0.7c0,0.2,0,0.4-0.1,0.7
			l-0.1,1.3C378,594.6,377.5,596.3,377.2,598z M376.9,598c0.7-3.4,1-7,0.6-10.5c-0.4-3.5-1.4-6.9-2.8-10c-1.5-3.1-3.4-6-5.6-8.6
			c-2.3-2.5-4.8-4.8-7.6-6.7c-2.8-1.8-5.8-3.5-9-4.6c-3.2-1.1-6.5-1.9-9.9-2.2c-1.7-0.2-3.4-0.1-5.1-0.2c-0.8,0-1.7,0.1-2.5,0.2
			c-0.4,0-0.8,0.1-1.3,0.1l-1.2,0.2c-0.8,0.2-1.7,0.3-2.5,0.5l-2.4,0.7c-0.8,0.2-1.6,0.6-2.4,0.9l-1.2,0.5l-1.1,0.6
			c-3.1,1.4-5.9,3.4-8.4,5.6c-0.6,0.6-1.3,1.1-1.8,1.7l-1.7,1.9c-0.6,0.6-1,1.4-1.5,2c-0.2,0.3-0.5,0.7-0.8,1l-0.7,1.1l-0.7,1.1
			c-0.2,0.4-0.4,0.7-0.6,1.1l-1.1,2.3c-0.3,0.8-0.6,1.6-0.8,2.4l-0.4,1.2l-0.3,1.2c-0.6,3.3-0.1,6.8,1.1,10.1
			c1.2,3.3,2.9,6.3,4.9,9.2c1,1.4,2.1,2.8,3.2,4.2c1.1,1.3,2.3,2.6,3.5,3.9c4.9,5,10.3,9.5,15.9,13.6l-1.1-0.3
			c1.1-0.2,2.2-0.5,3.2-0.7c1.1-0.2,2.2-0.5,3.3-0.8c2.2-0.6,4.3-1.1,6.5-1.7c4.3-1.2,8.6-2.6,12.7-4.2c2.1-0.8,4.1-1.8,6.1-2.8
			c2-1,3.9-2.2,5.7-3.6c1.8-1.4,3.4-2.9,4.7-4.7C375.3,602.2,376.4,600.1,376.9,598z"/>
	</g>
	<g>
		<path class="st16" d="M269,460.6c0,0-29.8-5-48.2,22.6c0,0-15.9-36.9,14.3-52c0,0,43.6-19.3,41.9-5.9c0,0-5-4.2,0,0
			c0,0,36.3-2.5,34.4,29.3l-14.3,40.2C297.1,494.9,275.4,460,269,460.6z"/>
		<path class="st17" d="M269,460.7c-4.6-0.6-9.3-0.4-13.9,0.5c-4.6,0.8-9,2.4-13.1,4.4c-4.1,2.1-7.9,4.8-11.2,7.9
			c-0.8,0.8-1.6,1.6-2.4,2.4l-1.2,1.3l-1.1,1.3c-1.5,1.7-2.8,3.6-4.1,5.5l-1.5,2.2l-1-2.5c-1.8-4.3-2.9-8.6-3.6-13.1
			c-0.4-2.2-0.5-4.5-0.6-6.8c-0.1-2.3,0-4.6,0.4-6.8c0.6-4.5,2-9,4.3-12.9c2.2-4,5.5-7.3,9.2-9.9c0.9-0.7,1.9-1.2,2.8-1.8
			c1-0.6,2-1.1,3-1.6c2-0.9,4.1-1.7,6.2-2.5c4.1-1.6,8.3-3.2,12.5-4.6c4.2-1.4,8.5-2.7,12.9-3.5c2.2-0.4,4.5-0.6,6.9-0.3
			c1.2,0.2,2.5,0.6,3.5,1.7c0.5,0.5,0.9,1.2,1,1.9c0.2,0.7,0.2,1.4,0.1,2l-0.2,2l-1.7-1.3l-1.1-0.9l-0.6-0.5l-0.3-0.2l-0.1-0.1
			l-0.1-0.1l0,0l0,0l0,0l0,0l0,0l0,0c-0.3,0.4,2.9-3.4,1.5-1.8l2.3,1.8l-0.9-0.3c2.3-0.1,4.5-0.1,6.7,0.1c2.2,0.2,4.4,0.5,6.6,1
			c4.4,0.9,8.7,2.6,12.5,5.3c3.8,2.6,6.8,6.5,8.5,10.8c1.7,4.4,2.2,9,1.9,13.5l0,0.2l-0.1,0.2l-3.6,10.1l-3.6,10
			c-1.2,3.3-2.4,6.7-3.7,10c-1.2,3.3-2.5,6.7-3.8,10l-1,2.6l-1.4-2.4c-3.7-6.5-7.7-12.8-11.9-19c-1.1-1.5-2.1-3.1-3.2-4.6
			c-1.1-1.5-2.3-3-3.4-4.4c-1.2-1.4-2.4-2.8-3.8-4.1c-0.7-0.6-1.4-1.2-2.1-1.8C270.7,461.2,269.9,460.7,269,460.7z M269,460.4
			c1-0.1,1.9,0.5,2.7,1c0.8,0.5,1.5,1.1,2.2,1.8c1.4,1.3,2.7,2.7,3.9,4.1c1.3,1.4,2.5,2.8,3.6,4.3c1.2,1.4,2.4,2.9,3.5,4.4
			c2.3,3,4.5,6,6.7,9c2.2,3.1,4.4,6.1,6.5,9.3l-2.4,0.3c1.1-3.4,2.2-6.8,3.3-10.1c1.1-3.4,2.3-6.7,3.4-10.1l3.5-10.1l3.6-10.1
			l-0.1,0.5c0.2-4.1-0.1-8.3-1.5-12.1c-1.4-3.8-3.9-7.1-7.2-9.5c-3.3-2.4-7.2-4-11.3-5c-2-0.5-4.1-0.9-6.2-1.1
			c-2.1-0.2-4.3-0.3-6.3-0.3l-0.5,0l-0.3-0.3l-2.2-1.9c-1.4,1.6,1.8-2.2,1.5-1.8l0,0l0,0l0,0l0,0l0,0l0,0l0.1,0.1l0.1,0.1l0.3,0.2
			l0.5,0.5l1.1,1l-1.8,0.7c0.1-0.5,0.1-0.9,0-1.3c-0.1-0.4-0.2-0.7-0.5-1c-0.5-0.6-1.4-1-2.3-1.2c-2-0.4-4.2-0.3-6.3,0
			c-4.3,0.6-8.6,1.6-12.8,2.9c-4.2,1.3-8.4,2.8-12.5,4.4c-2,0.8-4.1,1.7-6.1,2.6c-0.9,0.5-1.9,1-2.8,1.6c-0.9,0.6-1.8,1.2-2.7,1.9
			c-0.8,0.7-1.7,1.3-2.5,2.1c-0.4,0.4-0.8,0.7-1.2,1.1l-1.1,1.2c-0.4,0.4-0.7,0.8-1,1.3c-0.3,0.4-0.6,0.9-0.9,1.3
			c-0.5,0.9-1.2,1.8-1.6,2.8c-2,3.8-3.1,8-3.4,12.3c-0.3,4.3-0.1,8.6,0.6,12.9c0.3,2.1,0.8,4.2,1.4,6.3c0.6,2.1,1.2,4.2,2,6.1
			l-2.6-0.2c0.7-1,1.4-2,2.1-2.9c0.8-0.9,1.5-1.9,2.3-2.7c1.6-1.8,3.3-3.4,5.2-5c3.7-3,7.8-5.6,12.2-7.4c2.2-0.9,4.4-1.7,6.7-2.3
			c2.3-0.6,4.6-1.1,6.9-1.4c2.3-0.3,4.7-0.5,7-0.6C264.3,460,266.7,460.1,269,460.4z"/>
	</g>
	<g>
		<path class="st18" d="M366.8,468.5c0,0-34-2.1-52.4,25.6c0,0-11.7-39.8,18.5-54.9c0,0,35.2-19.3,62-10.1c0,0-25.2,0-20.1,4.2
			c0,0,26.8,3.4,38.6,41.1l-18.4,28.5C394.9,502.8,373.2,467.9,366.8,468.5z"/>
		<path class="st19" d="M366.8,468.6c-5.1-0.1-10.1,0.4-15.1,1.5c-4.9,1.1-9.7,2.8-14.3,5c-2.3,1.1-4.4,2.3-6.5,3.7
			c-2.1,1.4-4.1,2.9-5.9,4.6c-3.7,3.3-7,7.1-9.7,11.3l-1.3,2l-0.6-2.3c-1.4-5.3-2.2-10.6-2.3-16c-0.1-5.4,0.4-10.8,1.9-16.1
			c0.7-2.6,1.7-5.1,3-7.6c1.2-2.4,2.7-4.7,4.5-6.7c3.5-4.2,8-7.3,12.8-9.6c4.8-2.4,9.7-4.4,14.7-6.2c5-1.8,10.1-3.3,15.3-4.4
			c2.6-0.5,5.2-1,7.9-1.3c2.7-0.3,5.3-0.5,8-0.5c2.7,0,5.4,0.2,8,0.5c2.7,0.4,5.3,1,7.9,1.8l5.2,1.6l-5.4,0.1
			c-3.8,0.1-7.6,0.2-11.3,0.6c-1.9,0.2-3.7,0.4-5.5,0.8c-0.9,0.2-1.8,0.4-2.4,0.8c-0.2,0.1-0.3,0.2-0.4,0.2c-0.1,0.1-0.1,0.1,0,0
			c0-0.2,0-0.3,0-0.2c0,0,0.1,0.2,0.3,0.3l-0.6-0.3c2.7,0.4,5,1.2,7.4,2.2c1.2,0.5,2.3,1,3.4,1.6c0.6,0.3,1.1,0.6,1.7,0.9l1.6,1
			c4.3,2.7,8.1,6.1,11.5,9.8l2.4,2.9c0.2,0.2,0.4,0.5,0.6,0.7l0.5,0.8l1.1,1.6c1.5,2,2.6,4.3,3.9,6.5c0.7,1.1,1.1,2.2,1.6,3.4
			l1.5,3.4c0.9,2.3,1.7,4.7,2.5,7.1l0.2,0.6l-0.3,0.5c-3.1,4.7-6.2,9.5-9.3,14.2l-4.7,7.1l-4.8,7l-0.8,1.1l-0.7-1.1
			c-3.8-6.4-7.8-12.8-12.1-18.9c-2.1-3.1-4.4-6.1-6.8-9c-1.2-1.4-2.5-2.8-3.8-4.1c-0.7-0.6-1.4-1.2-2.1-1.8
			C368.5,469.1,367.7,468.5,366.8,468.6z M366.8,468.3c1,0,1.9,0.5,2.7,1c0.8,0.5,1.5,1.1,2.2,1.8c1.4,1.3,2.7,2.7,3.9,4.1
			c2.5,2.8,4.8,5.8,7.1,8.8c2.3,3,4.5,6,6.6,9.1c2.2,3.1,4.3,6.2,6.4,9.3l-1.5,0l4.5-7.2l4.5-7.2c3-4.8,6.1-9.6,9.1-14.3l-0.1,1.1
			c-0.8-2.3-1.6-4.6-2.5-6.8l-1.5-3.3c-0.5-1.1-0.9-2.2-1.6-3.3c-1.2-2.1-2.3-4.3-3.7-6.2l-1-1.5l-0.5-0.8c-0.2-0.2-0.4-0.5-0.6-0.7
			l-2.3-2.8c-3.2-3.6-6.8-6.9-10.8-9.5l-1.5-1c-0.5-0.3-1.1-0.6-1.6-0.9c-1-0.6-2.1-1.1-3.2-1.6c-2.2-0.9-4.5-1.7-6.7-2.1l-0.4-0.1
			l-0.2-0.2c-0.2-0.2-0.5-0.4-0.7-0.8c-0.2-0.3-0.5-0.9-0.3-1.5c0.1-0.6,0.5-1,0.8-1.2c0.3-0.2,0.6-0.4,0.8-0.5c1.1-0.5,2-0.7,3-0.9
			c1.9-0.4,3.9-0.6,5.8-0.7c3.8-0.3,7.6-0.4,11.5-0.3l-0.3,1.8c-2.5-0.9-5-1.5-7.5-2c-2.6-0.4-5.2-0.7-7.8-0.7
			c-2.6,0-5.3,0.1-7.9,0.3c-2.6,0.3-5.2,0.6-7.8,1.1c-10.4,2.1-20.4,5.7-29.8,10.5c-1.2,0.6-2.3,1.3-3.4,1.9
			c-1.1,0.8-2.2,1.4-3.2,2.3c-2.1,1.6-3.9,3.5-5.5,5.5c-1.6,2-3,4.3-4.1,6.6c-1.1,2.3-2,4.8-2.6,7.3c-1.3,5-1.7,10.3-1.5,15.5
			c0.1,2.6,0.3,5.2,0.7,7.8c0.4,2.6,0.8,5.2,1.5,7.7l-1.9-0.3c2.9-4.2,6.4-8.1,10.4-11.4c2-1.6,4.1-3.1,6.3-4.4
			c2.2-1.3,4.5-2.5,6.8-3.5c4.7-2.1,9.6-3.5,14.6-4.5C356.6,468.7,361.7,468.2,366.8,468.3z"/>
	</g>
	<g>
		<path class="st20" d="M57.8,515.6c0,0-23.9,20.9-29.5,53.7c0,0-27.3-28.5-11.5-61c0,0,15.4-26.8,43.6-29.3c0,0,12.9,1.6,19.2,3.4
			c0,0-3-10,23.1,19.7l6.2,39.3C109,541.3,63.4,512.4,57.8,515.6z"/>
		<path class="st21" d="M57.9,515.7c-3.7,3.5-7.2,7.5-10.3,11.6c-3.1,4.2-5.8,8.6-8.1,13.2c-1.2,2.3-2.2,4.6-3.3,7l-1.4,3.6
			c-0.2,0.6-0.5,1.2-0.7,1.8l-0.6,1.8c-1.7,4.8-2.7,9.9-3.7,14.9l-0.6,2.9l-2-2.1c-1.8-1.9-3.4-3.9-4.8-6c-1.5-2.1-2.8-4.3-4.1-6.5
			c-2.4-4.5-4.4-9.3-5.6-14.2c-0.7-2.5-1.1-5-1.4-7.5c-0.3-2.5-0.4-5.1-0.3-7.7c0.1-1.3,0.1-2.5,0.3-3.8c0.1-1.3,0.4-2.5,0.6-3.8
			c0.2-1.2,0.6-2.5,0.9-3.7l0.6-1.8c0.2-0.6,0.4-1.2,0.6-1.8c0.5-1.2,0.9-2.4,1.4-3.5l0.8-1.7c0.3-0.6,0.7-1.1,1-1.6
			c1.4-2.1,2.9-4.1,4.5-6.1c3.2-3.9,6.8-7.5,10.7-10.7c3.9-3.2,8.3-5.9,12.9-8c2.3-1,4.8-1.9,7.2-2.6c2.5-0.7,5-1.1,7.6-1.4l0.1,0
			l0.2,0c3.3,0.4,6.5,0.8,9.7,1.3c3.2,0.5,6.5,1,9.7,1.9l-1.9,1.9c-0.1-0.6-0.2-1-0.1-1.8c0-0.2,0.1-0.4,0.2-0.6
			c0.1-0.3,0.3-0.5,0.6-0.7c0.2-0.2,0.5-0.3,0.8-0.4c0.3-0.1,0.5-0.1,0.7-0.1c0.4,0,0.7,0.1,0.9,0.1c0.3,0.1,0.5,0.2,0.7,0.3
			c0.4,0.2,0.8,0.4,1.1,0.6c1.3,0.8,2.4,1.7,3.5,2.6c2.2,1.9,4.2,3.8,6.1,5.8c2,2,3.9,4,5.8,6c1.9,2,3.8,4.1,5.6,6.2l0.3,0.4
			l0.1,0.5l1.6,9.8c0.5,3.3,1,6.6,1.5,9.8l1.5,9.8l1.4,9.9l0.5,3.4l-2.8-1.9c-4-2.6-8-5.2-12.1-7.9c-4-2.6-8.1-5.2-12.2-7.6
			c-4.1-2.4-8.3-4.9-12.6-7.1c-2.1-1.1-4.3-2.1-6.5-3c-1.1-0.4-2.2-0.8-3.4-1.2c-0.6-0.2-1.2-0.3-1.7-0.3
			C59,515.5,58.4,515.5,57.9,515.7z M57.7,515.4c0.6-0.3,1.3-0.3,1.9-0.2c0.6,0.1,1.2,0.2,1.8,0.3c1.2,0.3,2.3,0.7,3.5,1.1
			c2.3,0.9,4.5,1.8,6.7,2.8c4.4,2.1,8.7,4.2,13,6.4c8.5,4.5,17,9.1,25.3,14.1l-2.4,1.5l-1.7-9.8l-1.6-9.8c-0.5-3.3-1.1-6.5-1.6-9.8
			l-1.6-9.8l0.4,0.9c-1.8-2.1-3.6-4.2-5.5-6.2c-1.8-2.1-3.7-4.1-5.6-6.1c-1.9-2-3.8-3.9-5.9-5.7c-1-0.9-2-1.7-3.1-2.4
			c-0.3-0.2-0.5-0.3-0.7-0.4c-0.2-0.1-0.4-0.1-0.4-0.1c0.1,0,0.1,0,0.2,0c0.1,0,0.2-0.1,0.3-0.2c0.1-0.1,0.2-0.2,0.2-0.3
			c0,0,0-0.1,0.1-0.1c0-0.1,0,0.2,0,0.3l1,2.7l-2.8-0.8c-1.5-0.4-3.1-0.8-4.6-1.1c-1.6-0.3-3.1-0.6-4.7-0.9
			c-3.2-0.6-6.4-1.1-9.6-1.5l0.3,0c-2.4,0.2-4.9,0.5-7.2,1.1c-2.4,0.6-4.7,1.3-7,2.2c-4.6,1.8-8.9,4.3-12.9,7.3
			c-4,3-7.6,6.5-10.8,10.3c-1.6,1.9-3.1,3.9-4.5,6c-0.3,0.5-0.7,1.1-1,1.6l-0.7,1.7c-0.5,1.1-0.9,2.3-1.3,3.5
			c-0.2,0.6-0.4,1.2-0.6,1.8l-0.5,1.8c-0.3,1.2-0.6,2.4-0.7,3.6c-0.2,1.2-0.4,2.4-0.4,3.7c-0.1,1.2-0.1,2.5-0.1,3.7
			c0,2.5,0.2,4.9,0.6,7.3c0.4,2.4,0.9,4.8,1.7,7.2c0.7,2.3,1.6,4.7,2.6,6.9c1,2.2,2.1,4.4,3.3,6.6c2.4,4.3,5.3,8.4,8.5,11.9
			l-2.5,0.8l0.8-3.9l0.4-1.9c0.2-0.6,0.4-1.3,0.6-1.9l1.1-3.8c0.4-1.3,0.9-2.5,1.4-3.7L32,552c0.2-0.6,0.5-1.2,0.8-1.8l1.6-3.6
			c1.2-2.3,2.4-4.7,3.8-6.9c2.7-4.5,5.7-8.8,8.9-12.8c0.8-1,1.7-2,2.5-3l2.6-2.9C54,519.1,55.8,517.2,57.7,515.4z"/>
	</g>
	<g>
		<path d="M157.1,547.1c0,0-29.4,7-35.6,39.6c0,0-29-27.8-7.1-53.4c0,0-12-26.8,16.4-28.8c0,0,13.7,5.1,20,7c0,0,26-7.4,51.5,22.8
			l-0.2,42.2C202,576.6,162.8,544.1,157.1,547.1z"/>
		<path class="st22" d="M157.2,547.3c-2.3,0.6-4.4,1.5-6.6,2.4c-2.1,1-4.2,2.1-6.1,3.4c-3.9,2.5-7.5,5.6-10.5,9.1
			c-3,3.5-5.5,7.4-7.4,11.6c-1.9,4.2-3.2,8.6-4,13.2l-0.3,1.9l-1.4-1.4c-1.9-1.8-3.5-3.7-5-5.7c-1.6-2-3-4.1-4.3-6.3
			c-2.6-4.4-4.5-9.2-5.5-14.2c-0.5-2.5-0.7-5.1-0.6-7.6c0.1-2.6,0.5-5.1,1.2-7.6l0.3-0.9l0.3-0.9c0.2-0.6,0.4-1.2,0.7-1.8
			c0.6-1.1,1.1-2.3,1.7-3.4c1.2-2.2,2.8-4.2,4.4-6.1l-0.1,0.5c-1.3-3.2-2.1-6.6-2.4-10c-0.3-3.4,0.1-7,1.7-10.1
			c1.5-3.1,4.3-5.6,7.5-7c3.2-1.4,6.6-2.1,10-2.4l0.1,0l0.1,0c3.3,1.2,6.7,2.4,10,3.5c3.3,1.1,6.7,2.3,10,3.2l-0.5,0
			c5-1.2,10.1-1.1,15.1-0.3c5,0.8,9.8,2.4,14.4,4.5l3.3,1.8c0.3,0.1,0.6,0.3,0.8,0.4l0.8,0.5l1.6,1c2.2,1.3,4.1,2.9,6.1,4.4
			c1,0.7,1.9,1.6,2.8,2.5l2.8,2.5c1.7,1.8,3.4,3.7,5.1,5.5l0.3,0.3l0,0.5c0,7-0.1,14.1-0.2,21.1l-0.1,10.5c-0.1,3.5-0.1,7-0.2,10.5
			l-0.1,2.3l-1.7-1.5c-3.4-2.9-6.9-5.8-10.4-8.7c-3.5-2.9-7-5.7-10.6-8.4c-3.6-2.7-7.2-5.5-11-7.9c-1.9-1.2-3.8-2.4-5.8-3.5
			c-1-0.5-2-1-3.1-1.4c-0.5-0.2-1.1-0.4-1.6-0.4C158.2,547.1,157.7,547,157.2,547.3z M157.1,547c0.5-0.3,1.2-0.2,1.7-0.1
			c0.6,0.1,1.1,0.2,1.7,0.4c1.1,0.4,2.1,0.9,3.1,1.4c2,1,4,2.2,5.9,3.4c3.9,2.4,7.6,4.9,11.4,7.5c3.7,2.6,7.4,5.3,11,8
			c3.6,2.7,7.3,5.4,10.8,8.3l-1.8,0.8c-0.1-3.5-0.1-7-0.1-10.5l0-10.5c0-7,0-14.1,0.1-21.1l0.3,0.9c-1.6-1.8-3.3-3.6-4.9-5.4
			l-2.6-2.5c-0.9-0.8-1.7-1.7-2.7-2.4c-1.9-1.5-3.7-3.1-5.8-4.3l-1.5-1l-0.8-0.5c-0.3-0.2-0.5-0.3-0.8-0.4l-3.2-1.7
			c-4.3-2.1-8.9-3.7-13.7-4.6l-1.8-0.3c-0.6-0.1-1.2-0.1-1.8-0.2c-1.2-0.2-2.4-0.2-3.6-0.2c-2.4,0-4.9,0.1-7.1,0.6l-0.3,0.1
			l-0.2-0.1c-3.4-1.1-6.7-2.3-10-3.6c-3.3-1.2-6.6-2.5-9.9-3.8l0.2,0c-3.3,0.2-6.7,0.8-9.7,2.1c-3.1,1.3-5.7,3.6-7.1,6.5
			c-1.5,3-1.8,6.4-1.5,9.7c0.1,1.7,0.4,3.3,0.9,4.9c0.4,1.6,0.9,3.2,1.6,4.7l0.1,0.3l-0.2,0.3c-1.5,1.9-3,3.9-4.1,6.1
			c-0.6,1.1-1.1,2.2-1.6,3.3c-0.2,0.6-0.4,1.1-0.6,1.7l-0.3,0.9l-0.2,0.9c-0.6,2.3-0.9,4.8-0.9,7.2c0,2.4,0.3,4.8,0.8,7.2
			c1.1,4.7,3,9.2,5.5,13.5c2.5,4.2,5.5,8.2,8.8,11.6l-1.8,0.6c0.3-1.2,0.5-2.3,0.8-3.5c0.3-1.1,0.6-2.3,1-3.4l0.6-1.7l0.7-1.6
			c0.4-1.1,1-2.2,1.5-3.2c2.2-4.2,4.9-8.2,8.2-11.6c3.2-3.4,7-6.4,11-8.8c2-1.2,4.1-2.3,6.2-3.3C152.6,548.5,154.8,547.6,157.1,547z
			"/>
	</g>
	<g>
		<path class="st23" d="M256.5,544.7c0,0-29.8-5-48.2,22.6c0,0-15.9-36.9,14.3-52c0,0-11.3-10.4,15.5-1.2c0,0,1.7-3.4,6.7,0.8
			c0,0,46.5-2.1,58.3,35.6l-13,35.2C290.1,585.8,262.9,544.2,256.5,544.7z"/>
		<path class="st24" d="M256.5,544.9c-4.6-0.6-9.3-0.4-13.9,0.4c-4.6,0.8-9,2.3-13.2,4.3c-4.2,2-8,4.7-11.3,7.8
			c-0.8,0.8-1.7,1.6-2.4,2.4l-1.2,1.3l-1.1,1.3c-0.8,0.9-1.4,1.8-2.1,2.7c-0.7,0.9-1.3,1.9-2,2.8l-1.2,1.6l-0.7-1.8
			c-2-4.8-3.2-9.7-3.8-14.7c-0.6-5-0.6-10.2,0.5-15.2c0.5-2.5,1.4-4.9,2.4-7.2c1.1-2.3,2.4-4.5,4.1-6.5l0.6-0.7l0.7-0.7
			c0.4-0.5,0.9-0.9,1.3-1.4c1-0.8,1.9-1.7,2.9-2.4c2-1.6,4.2-2.8,6.4-4l-0.1,0.7c-0.7-0.7-1.4-1.5-1.9-2.3c-0.3-0.5-0.5-0.9-0.5-1.6
			c0-0.3,0.1-0.7,0.3-0.9c0.2-0.3,0.5-0.4,0.8-0.5c1.1-0.4,2.1-0.3,3.1-0.2c1,0.1,2,0.3,2.9,0.4c3.9,0.8,7.6,2,11.3,3.2l-0.6,0.2
			c0.4-0.7,1-1.2,1.7-1.4c0.7-0.2,1.5-0.2,2.2,0c0.7,0.2,1.3,0.5,1.9,0.8c0.6,0.3,1.1,0.7,1.7,1.2l-0.4-0.1
			c6.2-0.2,12.3,0.4,18.4,1.6c6.1,1.2,12,3.2,17.5,6.1c2.8,1.4,5.4,3.1,7.9,5.1c1.3,0.9,2.4,2,3.6,3.1c1.1,1.1,2.2,2.2,3.2,3.4
			c1.1,1.2,1.9,2.5,2.9,3.7l1.3,2c0.4,0.7,0.8,1.3,1.2,2c1.6,2.7,2.7,5.7,3.7,8.7l0.1,0.4l-0.2,0.4l-3.2,8.8l-3.3,8.8
			c-2.2,5.9-4.4,11.7-6.6,17.5l-0.8,2.2l-1.2-1.9c-2.4-3.8-4.8-7.5-7.2-11.2c-2.4-3.7-4.9-7.4-7.5-11.1c-2.6-3.6-5.2-7.3-8-10.7
			c-1.4-1.7-2.9-3.4-4.4-5c-0.8-0.8-1.6-1.5-2.5-2.2c-0.4-0.3-0.9-0.7-1.4-0.9C257.6,545.1,257.1,544.8,256.5,544.9z M256.5,544.6
			c0.6,0,1.2,0.2,1.6,0.5c0.5,0.3,1,0.6,1.4,0.9c0.9,0.7,1.7,1.4,2.5,2.2c1.6,1.6,3.1,3.2,4.6,4.9c2.9,3.4,5.8,6.8,8.5,10.4
			c5.5,7.1,10.8,14.3,15.8,21.7l-2,0.2c2.1-5.9,4.2-11.8,6.3-17.6l3.2-8.8l3.3-8.8l0,0.9c-1-2.8-2-5.6-3.4-8.2
			c-0.3-0.7-0.7-1.3-1.1-1.9l-1.2-1.9c-0.9-1.2-1.7-2.4-2.7-3.6c-0.9-1.2-2-2.2-3-3.3c-1.1-1-2.2-2.1-3.3-3c-2.3-1.9-4.8-3.5-7.4-5
			c-2.6-1.4-5.4-2.7-8.2-3.8c-2.8-1-5.7-1.9-8.7-2.6c-5.9-1.4-12-2.2-18-2.2l-0.2,0l-0.2-0.1c-0.5-0.4-1-0.8-1.5-1.1
			c-0.5-0.3-1.1-0.6-1.6-0.8c-0.6-0.2-1.1-0.2-1.6-0.1c-0.5,0.1-1,0.5-1.2,0.9l-0.2,0.4l-0.4-0.1c-3.7-1.3-7.4-2.5-11.2-3.3
			c-0.9-0.2-1.9-0.4-2.9-0.5c-0.9-0.1-1.9-0.1-2.7,0.2c-0.4,0.2-0.6,0.4-0.6,0.7c0,0.4,0.2,0.8,0.4,1.2c0.5,0.8,1.1,1.5,1.8,2.1
			l0.4,0.4l-0.5,0.3c-4.4,2.3-8.4,5.3-11.3,9.2c-1.5,1.9-2.7,4.1-3.6,6.3c-0.9,2.2-1.7,4.6-2.1,7c-0.4,2.4-0.6,4.8-0.6,7.3
			c0,2.4,0.2,4.9,0.5,7.3c0.3,2.4,0.8,4.8,1.4,7.2c0.6,2.4,1.3,4.7,2.2,6.9l-1.9-0.2c2.7-3.9,5.9-7.5,9.5-10.6
			c3.7-3.1,7.7-5.6,12-7.5c2.2-0.9,4.4-1.7,6.7-2.4c2.3-0.6,4.6-1.1,6.9-1.5c2.3-0.4,4.7-0.5,7-0.6
			C251.9,544.2,254.2,544.3,256.5,544.6z"/>
	</g>
	<g>
		<path class="st25" d="M460.5,549.3c-7.3,18.5-47.9,19.9-47.9,19.9s-28.8-28.7-21.5-47.2c7.3-18.5,28.8-27.4,47.9-19.9
			S467.8,530.8,460.5,549.3z"/>
		<path class="st26" d="M460.7,549.4c-1.7,4.3-5.1,7.6-8.8,10.3c-3.8,2.6-7.9,4.6-12.2,6.3c-4.3,1.6-8.8,2.8-13.3,3.6
			c-2.3,0.4-4.5,0.7-6.8,1c-2.3,0.2-4.5,0.4-6.9,0.5l-0.8,0l-0.5-0.5c-4.9-5.3-9.1-11.1-12.8-17.2c-0.9-1.5-1.8-3.1-2.7-4.6
			c-0.4-0.8-0.8-1.6-1.2-2.4c-0.4-0.8-0.8-1.6-1.2-2.4c-1.5-3.2-2.8-6.6-3.6-10.1c-0.4-1.8-0.6-3.6-0.7-5.4c-0.1-0.9,0-1.8,0.1-2.8
			c0-0.5,0.1-0.9,0.2-1.4l0.1-0.7c0.1-0.2,0.1-0.4,0.2-0.7c0.1-0.4,0.3-0.9,0.4-1.3l0.5-1.3c0.4-0.8,0.7-1.7,1.1-2.5l1.3-2.4
			l0.3-0.6l0.4-0.6l0.8-1.1l0.8-1.1c0.3-0.4,0.6-0.7,0.9-1.1c0.6-0.7,1.2-1.4,1.8-2.1l2-1.9l0.5-0.5l0.5-0.4l1.1-0.9l1.1-0.8
			c0.4-0.3,0.8-0.5,1.2-0.8c0.8-0.5,1.6-1,2.4-1.5l2.5-1.2l0.6-0.3l0.7-0.2l1.3-0.5l1.3-0.5c0.4-0.2,0.9-0.3,1.3-0.4
			c0.9-0.2,1.8-0.5,2.7-0.7l2.8-0.5l0.7-0.1l0.7-0.1l1.4-0.1c1.9-0.2,3.7-0.1,5.6,0c1.8,0.2,3.7,0.4,5.5,0.9
			c7.3,1.6,14.1,5.4,19.3,10.7c2.6,2.7,4.7,5.8,6.4,9c1.6,3.3,2.7,6.8,3.4,10.4c0.6,3.6,0.6,7.2,0.3,10.8l-0.4,2.6l-0.1,0.7
			l-0.2,0.6l-0.3,1.3C462,546.1,461.3,547.7,460.7,549.4z M460.3,549.2c1.2-3.3,2-6.7,2.1-10.2c0.1-3.5-0.4-7-1.3-10.3
			c-1-3.3-2.4-6.4-4.3-9.3c-1.9-2.8-4-5.4-6.5-7.7c-9.8-9.1-24.4-12.6-37.2-8.4l-1.2,0.4l-0.6,0.2l-0.6,0.3l-2.3,1
			c-0.7,0.4-1.5,0.8-2.2,1.2c-0.4,0.2-0.7,0.4-1.1,0.6l-1,0.7l-1,0.7l-0.5,0.4l-0.5,0.4l-1.9,1.6c-0.6,0.6-1.2,1.2-1.8,1.8
			c-0.3,0.3-0.6,0.6-0.9,0.9l-0.8,1l-0.8,1l-0.4,0.5l-0.3,0.5l-1.4,2.1c-0.4,0.7-0.8,1.5-1.2,2.3l-0.6,1.1l-0.4,1.2
			c-1.1,3.1-1.1,6.7-0.5,10c0.7,3.4,1.8,6.7,3.4,9.8c0.8,1.6,1.6,3.1,2.5,4.6c0.9,1.5,1.9,2.9,2.9,4.4c2.1,2.8,4.3,5.5,6.6,8.1
			c2.3,2.6,4.8,5.1,7.2,7.5l-1.3-0.5c1.1-0.1,2.2-0.2,3.3-0.3c1.1-0.1,2.2-0.2,3.3-0.3c2.2-0.3,4.4-0.5,6.6-0.9
			c4.4-0.6,8.8-1.4,13.1-2.5c4.3-1.1,8.6-2.5,12.5-4.7c1.9-1.1,3.7-2.5,5.3-4C458.2,553.2,459.5,551.3,460.3,549.2z"/>
	</g>
	<g>
		<path class="st27" d="M448.5,510.1c0,0-27.5-12.6-52.4,9.4c0,0-5.8-39.8,27.2-46.5c0,0,26.8-12.2,50.4,3.7c0,0-12.1-3.8-8.4,1.5
			c0,0,25.1,10.2,26.6,49.7L443.9,572C443.9,572,454.9,511.2,448.5,510.1z"/>
		<path d="M448.5,510.1c-2.2-0.9-4.4-1.6-6.7-2.1c-2.3-0.5-4.6-0.9-6.9-1.1c-4.6-0.5-9.4-0.3-14,0.5c-4.6,0.8-9,2.4-13.2,4.5
			c-4.1,2.1-8,4.8-11.4,7.9l-0.5,0.4l-0.1-0.7c-0.4-2.5-0.5-5-0.5-7.5c0-2.5,0.1-5,0.4-7.5c0.6-5,1.8-9.9,4-14.5
			c1.1-2.3,2.4-4.5,4-6.5c1.6-2,3.4-3.9,5.5-5.4l0.8-0.6l0.8-0.5c0.5-0.3,1.1-0.7,1.6-1c1.1-0.6,2.2-1.3,3.4-1.7
			c2.3-1.1,4.8-1.8,7.3-2.4l-0.2,0.1c2.1-0.9,4.2-1.6,6.3-2.3c2.1-0.6,4.3-1.2,6.5-1.6c4.4-0.8,8.9-1.2,13.4-1
			c4.5,0.2,9,0.9,13.3,2.3c4.3,1.3,8.4,3.4,12.2,5.9l9.5,6.2l-10.9-3.3c-0.9-0.3-1.8-0.5-2.7-0.7c-0.9-0.2-1.8-0.4-2.7-0.5
			c-0.4,0-0.9-0.1-1.2-0.1c-0.4,0-0.7,0.1-0.7,0.1c0,0,0.1,0,0.1-0.1c0.1-0.1,0.1-0.2,0.2-0.3c0-0.1,0-0.2,0-0.2c0,0,0,0,0,0
			c0,0.1,0.2,0.5,0.4,0.8l-0.7-0.6c0.7,0.3,1.2,0.6,1.8,0.9c0.6,0.3,1.1,0.6,1.7,1c0.6,0.3,1.1,0.7,1.6,1.1c0.5,0.4,1.1,0.7,1.5,1.1
			c1,0.8,2,1.6,2.9,2.5c0.5,0.4,0.9,0.9,1.4,1.3l1.3,1.4c3.4,3.8,6.2,8.1,8.5,12.6l1.5,3.5c0.1,0.3,0.3,0.6,0.4,0.9l0.3,0.9l0.6,1.8
			c0.9,2.4,1.4,4.8,2,7.3c0.3,1.2,0.5,2.5,0.7,3.7l0.6,3.7c0.2,2.5,0.3,5,0.5,7.5l0,0.6l-0.5,0.4l-48.7,43.5l-1,0.9l0.3-1.3
			c2-10.3,3.7-20.6,5.1-31c0.7-5.2,1.3-10.4,1.7-15.6c0.2-2.6,0.3-5.2,0.3-7.9c0-1.3-0.1-2.6-0.3-3.9c-0.1-0.6-0.2-1.3-0.4-1.9
			C449.6,511,449.2,510.3,448.5,510.1z M448.5,510.1c0.7,0.2,1,0.8,1.2,1.4c0.2,0.6,0.4,1.3,0.5,1.9c0.2,1.3,0.3,2.6,0.3,3.9
			c0.1,2.6-0.1,5.2-0.2,7.9c-0.3,5.2-0.9,10.5-1.5,15.7c-0.6,5.2-1.3,10.4-2.1,15.6c-0.8,5.2-1.5,10.4-2.4,15.6l-0.7-0.4l47.5-44.8
			l-0.4,1l-0.7-7.2l-0.6-3.6c-0.2-1.2-0.4-2.4-0.7-3.5c-0.6-2.3-1.1-4.7-2-6.9l-0.6-1.7l-0.3-0.8c-0.1-0.3-0.2-0.5-0.4-0.8l-1.5-3.3
			c-2.2-4.3-4.8-8.3-8-11.8l-1.2-1.3c-0.4-0.4-0.9-0.8-1.3-1.2c-0.9-0.8-1.8-1.6-2.7-2.3c-0.5-0.4-1-0.7-1.4-1c-0.5-0.3-1-0.7-1.5-1
			c-0.5-0.3-1-0.6-1.5-0.9c-0.5-0.3-1-0.6-1.5-0.8l-0.5-0.2l-0.2-0.4c-0.3-0.5-0.7-1-0.9-1.8c0-0.2-0.1-0.5-0.1-0.7
			c0-0.3,0-0.6,0.1-0.9c0.1-0.3,0.3-0.6,0.5-0.9c0.2-0.2,0.5-0.4,0.7-0.5c0.9-0.5,1.6-0.5,2.2-0.5c0.6,0,1.2,0,1.7,0.1
			c1.1,0.1,2.1,0.3,3.1,0.5c1,0.2,1.9,0.5,2.9,0.8l-1.4,2.9c-3.5-2.3-7.3-4.2-11.4-5.6c-4-1.3-8.2-2.1-12.5-2.4
			c-4.3-0.3-8.5,0-12.8,0.7c-4.2,0.7-8.5,1.8-12.4,3.3l-0.1,0.1l-0.1,0c-2.4,0.5-4.7,1.1-6.9,2.1c-1.1,0.4-2.2,1-3.3,1.5
			c-0.5,0.3-1,0.6-1.5,0.9l-0.8,0.5l-0.7,0.5c-2,1.4-3.7,3.1-5.3,4.9c-1.5,1.9-2.9,3.9-4,6.1c-2.2,4.4-3.6,9.1-4.3,14
			c-0.4,2.4-0.6,4.9-0.6,7.4c-0.1,2.5,0,5,0.3,7.4l-0.6-0.2c3.6-3,7.5-5.7,11.7-7.8c4.2-2,8.7-3.5,13.4-4.3c4.6-0.8,9.3-0.9,14-0.4
			c2.3,0.2,4.6,0.6,6.9,1.2C444.1,508.5,446.4,509.2,448.5,510.1z"/>
	</g>
	<g>
		<path class="st28" d="M177.3,414.4c-5-4.2,20.1-4.2,20.1-4.2c-26.8-9.2-62,10.1-62,10.1c-9.3,4.6-14.2,11.3-16.6,18.4
			c0,0-28.6-20.7-30,14.3c0,0,22.7,44.3,17.2,50.7l16.5-9.6l-1.1-15.7c18.4-27.7,47.8-28.7,47.8-28.7c6.4-0.6,28.1,34.4,28.1,34.4
			l18.4-28.5C204.1,417.7,177.3,414.4,177.3,414.4z"/>
		<path class="st29" d="M177.3,414.5c-0.2-0.2-0.4-0.3-0.6-0.6c-0.1-0.2-0.3-0.5-0.2-0.8c0.1-0.6,0.7-0.9,1.1-1.1
			c0.9-0.4,1.8-0.7,2.8-0.9c1.9-0.4,3.8-0.7,5.7-0.9c3.8-0.4,7.6-0.6,11.4-0.7l-0.2,1.2c-7-2.3-14.6-2.6-21.9-1.9
			c-7.4,0.8-14.6,2.5-21.7,4.8c-3.5,1.2-7,2.5-10.4,4c-3.4,1.5-6.8,3.1-9.9,4.9c-6.3,3.6-11.3,9.4-13.6,16.3l-0.4,1.3l-1.2-0.8
			c-2.9-2.1-6.3-3.9-9.7-5c-3.4-1.1-7.2-1.6-10.5-0.3c-1.6,0.6-3.1,1.8-4.2,3.2c-1.1,1.4-2,3-2.6,4.8c-1.3,3.5-1.7,7.2-1.9,10.9
			l-0.1-0.2c2,4.1,4,8.2,5.9,12.3c1.9,4.1,3.7,8.3,5.5,12.5c1.7,4.2,3.4,8.4,4.8,12.8c0.7,2.2,1.3,4.4,1.7,6.6
			c0.2,1.1,0.4,2.3,0.4,3.5c0,0.6,0,1.2-0.2,1.8c-0.1,0.6-0.3,1.2-0.8,1.8l-0.7-0.9l16.4-9.8l-0.4,0.8l-1.2-15.7l0-0.3l0.2-0.3
			c4.8-7.3,11-13.6,18.2-18.5l1.3-0.9l1.4-0.8c0.9-0.5,1.9-1.1,2.8-1.6c1.9-1,3.9-2,5.9-2.8c4-1.7,8.2-3,12.5-3.9
			c1.1-0.2,2.1-0.4,3.2-0.6c1.1-0.2,2.1-0.3,3.3-0.3c0.9,0,1.6,0.3,2.1,0.5c0.6,0.3,1.1,0.6,1.6,1c0.9,0.7,1.8,1.4,2.6,2.2
			c3.1,3.1,5.8,6.5,8.4,9.9c2.6,3.4,5.1,7,7.4,10.5c2.4,3.6,4.7,7.2,7,10.8l-2.2,0l18.7-28.4l-0.1,0.9c-0.8-2.3-1.6-4.6-2.4-6.9
			l-1.5-3.3c-0.5-1.1-0.9-2.3-1.5-3.3c-1.2-2.1-2.2-4.3-3.7-6.3l-1-1.5l-0.5-0.8c-0.2-0.2-0.4-0.5-0.6-0.7l-2.3-2.9
			c-3.2-3.7-6.8-7-10.9-9.7C186.6,417.7,182.1,415.5,177.3,414.5z M177.4,414.3c4.8,0.7,9.5,2.8,13.8,5.3c4.3,2.6,8.1,5.9,11.4,9.6
			l2.4,2.9c0.2,0.2,0.4,0.5,0.6,0.7l0.5,0.8l1.1,1.5c1.5,2,2.7,4.2,3.9,6.4c0.7,1.1,1.1,2.2,1.7,3.3l1.6,3.4c0.9,2.3,1.7,4.7,2.6,7
			l0.2,0.4l-0.3,0.4l-18.2,28.6l-1.1,1.7l-1.1-1.7c-4.6-7.2-9.4-14.3-14.4-21.1c-2.6-3.4-5.2-6.7-8.1-9.7c-0.7-0.7-1.5-1.4-2.3-2
			c-0.4-0.3-0.8-0.5-1.2-0.7c-0.4-0.2-0.7-0.3-0.9-0.3c-0.9,0-2,0.2-3,0.3c-1,0.1-2.1,0.3-3.1,0.5c-4.1,0.8-8.1,2-12,3.6
			c-2,0.8-3.8,1.7-5.7,2.6c-0.9,0.5-1.8,1-2.7,1.6l-1.4,0.8l-1.3,0.9c-7,4.7-13.1,10.6-17.8,17.6l0.2-0.6l0.9,15.7l0,0.5l-0.4,0.2
			l-16.6,9.4l-3,1.7l2.3-2.6c0.6-0.6,0.7-1.8,0.7-2.8c0-1.1-0.1-2.2-0.3-3.3c-0.4-2.2-0.9-4.4-1.6-6.5c-1.3-4.3-2.9-8.6-4.6-12.7
			c-1.7-4.2-3.5-8.3-5.5-12.4c-1.9-4.1-3.9-8.2-6-12.2l-0.1-0.1l0-0.1l0.2-2.8c0.1-0.9,0.2-1.9,0.3-2.8c0.1-0.9,0.3-1.9,0.5-2.8
			c0.3-0.9,0.5-1.9,0.8-2.8c0.6-1.8,1.5-3.6,2.6-5.2c1.2-1.6,2.8-2.9,4.6-3.7c1.9-0.8,3.9-1.1,5.9-1c2,0.1,3.9,0.5,5.8,1
			c1.9,0.6,3.6,1.3,5.4,2.1c1.7,0.9,3.4,1.8,5,2.9l-1.6,0.5c1.2-3.7,3.1-7.1,5.5-10.1c2.5-3,5.5-5.5,8.8-7.5c3.3-1.9,6.7-3.5,10.2-5
			c3.5-1.5,7-2.8,10.6-4c3.6-1.2,7.2-2.2,10.9-3c3.7-0.8,7.4-1.4,11.2-1.7c7.5-0.6,15.3,0,22.5,2.5l3.4,1.2l-3.6,0
			c-3.8,0-7.6,0-11.4,0.3c-1.9,0.1-3.8,0.3-5.6,0.6c-0.9,0.2-1.9,0.4-2.7,0.7c-0.4,0.2-0.8,0.4-0.9,0.8
			C176.7,413.6,177.1,414,177.4,414.3z"/>
	</g>
	<g>
		<path class="st30" d="M387.3,624.8l-0.4-0.7C386.9,624.5,387.1,624.7,387.3,624.8z"/>
		<path class="st31" d="M400.8,563.2c-11.7-37.7-38.6-41.1-38.6-41.1c-5-4.2,20.1-4.2,20.1-4.2c-26.8-9.2-62,10.1-62,10.1
			c-30.2,15.1-14.3,52-14.3,52c18.4-27.7,48.2-22.6,48.2-22.6c6.2-0.6,21.6,29.6,23,31.9l-3.5,15l13.1,19.9
			c-1.1-5.5,32.3-32.5,32.3-32.5C426.7,562.8,400.8,563.2,400.8,563.2z"/>
	</g>
</g>
<g>
	<path class="st32" d="M165.4,317.8c5.2-15,9.7-30.3,12.6-45.7c1.8-7.6,3.3-15.3,3.8-23c0.1-1.9,0.2-3.9,0.2-5.8
		c-0.1-1.9-0.1-3.8-0.2-5.7c-0.3-3.8-1.1-7.7-1.4-11.8c-0.4-4.1-0.3-8.4,0.8-12.6c1-4.2,3.1-8.1,5.7-11.5c2.6-3.4,5.7-6.2,9-8.7
		c3.3-2.5,6.7-4.7,10.3-6.7c1.8-1,3.6-1.9,5.4-2.8c0.9-0.4,1.8-0.9,2.8-1.3c1-0.4,1.9-0.8,2.9-1.2c3.8-1.5,7.7-2.7,11.7-3.7
		c7.9-2,16-3.1,24.1-3.1c8.1-0.1,16.3,0.9,24.2,2.8l3,0.7l1.5,0.4l1.4,0.5l5.8,1.9c3.7,1.4,7.5,2.7,11.2,4.4
		c3.7,1.7,7.4,3.8,10.7,6.5c3.3,2.7,6.1,5.9,8.4,9.5c4.4,7.3,6.4,15.6,6.9,23.8c0.3,4.1,0.3,8.2,0.1,12.2l-0.2,3
		c0,0.5-0.1,1-0.1,1.5l0,1.4c0,0.9-0.1,1.9-0.1,2.8l0.1,2.9c0.4,7.7,1.8,15.5,3.2,23.2c1.1,7.8,2.6,15.6,4.2,23.3l1.3,5.8
		c0.5,1.9,0.9,3.9,1.4,5.8c0.5,1.9,1,3.8,1.5,5.7c0.3,1,0.6,1.9,0.9,2.8c0.3,1,0.7,1.8,1.1,2.8c-0.5-0.8-1.1-1.7-1.4-2.6
		c-0.4-0.9-0.9-1.8-1.2-2.7c-0.8-1.8-1.5-3.7-2.2-5.6c-0.7-1.9-1.3-3.8-2-5.6l-1.9-5.7c-2.4-7.6-4.6-15.3-6.5-23.1
		c-0.9-3.9-1.4-7.9-2-11.8l-0.8-6c-0.2-2-0.4-4-0.5-6.1l-0.1-3.1c-0.1-1,0-2.1,0.1-3.1l0.1-1.6c0-0.5,0.1-1,0.1-1.5l0.2-2.9
		c0.2-3.9,0.2-7.7-0.1-11.6c-0.5-7.6-2.4-15.2-6.2-21.5c-2-3.1-4.4-5.9-7.3-8.3c-2.9-2.3-6.1-4.2-9.6-5.8c-3.5-1.6-7.2-2.9-10.9-4.3
		l-5.5-1.8l-1.4-0.5l-1.4-0.3l-2.8-0.7c-7.5-1.8-15.2-2.7-23-2.6c-7.7,0.1-15.5,1.1-23,3c-3.8,0.9-7.5,2.1-11,3.5
		c-0.9,0.4-1.8,0.7-2.6,1.1c-0.8,0.4-1.7,0.8-2.6,1.3c-1.8,0.8-3.5,1.8-5.2,2.7c-3.4,1.9-6.6,4-9.7,6.3c-3,2.3-5.8,4.9-8,7.8
		c-2.3,2.9-3.9,6.2-4.8,9.7c-0.9,3.5-1,7.2-0.7,11c0.3,3.8,1,7.7,1.4,11.8c0.1,2.1,0.2,4.1,0.2,6.2c0,2-0.2,4.1-0.2,6.1
		c-0.3,4-0.8,8.1-1.5,12c-0.3,2-0.7,4-1.1,5.9c-0.4,2-0.7,4-1.3,5.9c-2.2,7.7-4.8,15.3-7.8,22.7
		C172.2,303.4,168.9,310.7,165.4,317.8z"/>
	<path class="st32" d="M202.4,317.8c3.1,5,6.4,9.8,10,14.3c2.9,4.9,6.2,9.6,9.9,13.8c3.7,4.2,8,7.9,12.8,10.4
		c2.4,1.2,4.9,2.2,7.5,2.7c1.3,0.2,2.6,0.4,3.9,0.4c0.3,0,0.6,0,1,0l1.1,0l2.2,0c3,0.1,5.8,0.2,8.5,0c2.7-0.2,5.4-0.6,7.8-1.6
		c4.9-1.8,8.9-5.6,12.2-10.1c1.7-2.2,3.2-4.6,4.5-7.1c0.7-1.2,1.3-2.5,2-3.8c0.3-0.6,0.6-1.3,0.9-1.9c0.3-0.7,0.5-1.3,0.9-1.9
		c3-4.9,5.8-10.1,8.6-15.2c-0.9,5.8-2.3,11.6-4.1,17.3c-1.2,2.7-2.6,5.4-4,8c-1.4,2.6-3.1,5.2-4.9,7.6c-1.8,2.4-3.9,4.8-6.3,6.8
		c-2.4,2-5.1,3.8-8.2,4.9c-3,1.2-6.2,1.7-9.3,1.9c-3.1,0.2-6.1,0-8.9,0l-2.1,0l-1.1,0l-1.2,0c-1.6,0-3.2-0.2-4.8-0.5
		c-3.1-0.6-6.1-1.7-8.9-3.1c-5.6-2.9-10.2-7-14.2-11.5c-4-4.5-7.4-9.4-10.5-14.5C205.6,329.2,203.6,323.6,202.4,317.8z"/>
</g>
<rect x="200.3" y="130.1" class="st33" width="1721.3" height="458.4"/>
<text transform="matrix(1 0 0 1 539.5833 228.8652)" class="st3 st34 st35">Centro Comunitário</text>
<rect x="522.8" y="274.4" class="st33" width="1076.3" height="500.4"/>
<text transform="matrix(1 0 0 1 547.0335 391.0684)"><tspan x="0" y="0" class="st3 st36 st37">Nossa Senhora </tspan><tspan x="123.6" y="145" class="st3 st36 st37">Medianeira</tspan></text>
</svg>
